<svg xmlns="http://www.w3.org/2000/svg" xmlns:xlink="http://www.w3.org/1999/xlink" id="Calque_1" data-name="Calque 1" viewBox="0 0 981.03 920.44"><defs><style>.cls-1{fill:url(#Dégradé_sans_nom_34)}.cls-2{fill:url(#Dégradé_sans_nom_34-2)}.cls-13,.cls-3{fill:#fff}.cls-4{fill:url(#Dégradé_sans_nom_34-3)}.cls-5{fill:url(#Dégradé_sans_nom_34-4)}.cls-6{fill:url(#Dégradé_sans_nom_34-5)}.cls-7{fill:#231f20}.cls-15,.cls-16,.cls-17,.cls-8{fill:none;stroke-miterlimit:10}.cls-8{stroke:#f1f2f2}.cls-9{fill:#77491d}.cls-10{fill:#3c2415}.cls-11,.cls-18{fill:#603913}.cls-12{fill:#8b5e3c}.cls-13,.cls-18{opacity:.4}.cls-14{fill:#754c29}.cls-15,.cls-17{stroke:#231f20}.cls-15,.cls-16{stroke-width:8px}.cls-16{stroke:#3c2415}.cls-17{stroke-width:5px}</style><radialGradient id="Dégradé_sans_nom_34" cx="512.92" cy="622.75" r="460.54" gradientTransform="matrix(1.04, 0.02, -0.02, 1, 9.34, -8.89)" gradientUnits="userSpaceOnUse"><stop offset="0" stop-color="#f26522"/><stop offset=".26" stop-color="#f36b21"/><stop offset=".6" stop-color="#f47b20"/><stop offset=".97" stop-color="#f7941d"/></radialGradient><radialGradient id="Dégradé_sans_nom_34-2" cx="806.58" cy="1004.38" r="26.81" gradientTransform="translate(340.26 -264.94) scale(0.59 1.11)" xlink:href="#Dégradé_sans_nom_34"/><radialGradient id="Dégradé_sans_nom_34-3" cx="1163.71" cy="185.72" r="26.81" gradientTransform="translate(501.9 93.43) scale(0.4 0.76)" xlink:href="#Dégradé_sans_nom_34"/><radialGradient id="Dégradé_sans_nom_34-4" cx="970.4" cy="396.96" r="26.81" gradientTransform="translate(-205.91 -629.88) scale(1.17 1.99)" xlink:href="#Dégradé_sans_nom_34"/><radialGradient id="Dégradé_sans_nom_34-5" cx="-207.69" cy="984.26" r="26.81" gradientTransform="translate(312.63 -1126.77) scale(1.06 2)" xlink:href="#Dégradé_sans_nom_34"/></defs><title>black_boi</title><ellipse id="background" cx="530.23" cy="621.79" class="cls-1" rx="477.86" ry="459.88" transform="translate(-63.12 -152.58) rotate(-1)"/><circle id="decor" cx="812.93" cy="845.61" r="19.63" class="cls-2"/><circle id="decor-2" cx="155.96" cy="602.23" r="15.72" class="cls-3" data-name="decor"/><circle id="decor-3" cx="137.3" cy="513.44" r="40.66" class="cls-3" data-name="decor"/><circle id="decor-4" cx="967.62" cy="233.67" r="13.41" class="cls-4" data-name="decor"/><ellipse id="decor-5" cx="928.46" cy="158.35" class="cls-5" data-name="decor" rx="39.16" ry="35.26"/><circle id="decor-6" cx="92.85" cy="838.43" r="35.45" class="cls-6" data-name="decor"/><circle id="decor-7" cx="838.56" cy="731.1" r="39.5" class="cls-3" data-name="decor"/><path id="shirtlow" d="M399.26,770.78H531.7a125,125,0,0,1,125,125v24.66a0,0,0,0,1,0,0H274.26a0,0,0,0,1,0,0V895.78A125,125,0,0,1,399.26,770.78Z" class="cls-7"/><path id="shirt" d="M428.45,731.1H505.8a24.75,24.75,0,0,1,24.75,24.75v1A53.25,53.25,0,0,1,477.3,810.1H455.95a53.25,53.25,0,0,1-53.25-53.25v0A25.75,25.75,0,0,1,428.45,731.1Z" class="cls-7"/><g id="logo"><path d="M450.29,1044.52l3.35-.7a.23.23,0,0,1,.18.25l.13.32a1.34,1.34,0,0,0,.21.2l.25.16.49-.09a1.21,1.21,0,0,1,.32.11l.29.13a.23.23,0,0,1,.22.18l-.06.44-.19.32a1.8,1.8,0,0,1-.09.45.72.72,0,0,0-.27.23l.21.25.29.13a1.16,1.16,0,0,0-.2.32.59.59,0,0,0,.1.28,1.05,1.05,0,0,1,.37.09l.25.18.74.12.58.33.17.28.14.32c0,.21.08.42.13.62l-.19,0-.37,0a.48.48,0,0,0,.26.2.63.63,0,0,1,.32.15,1.43,1.43,0,0,0,.3.16.56.56,0,0,1,.17.29.94.94,0,0,1-.37.11l-.19,0,.14.13.34,0v.16a1.25,1.25,0,0,0,.14.32l.37.12.06.27,0,.11a.11.11,0,0,0-.07.09l.1.14.26.21.21.29c0,.13.07.25.1.38l-.38.1a1.8,1.8,0,0,0-.12.35,1.69,1.69,0,0,0,.29.22l.33.1.3.21a1.69,1.69,0,0,1,.17.3l.11.2-.48-.06,0,.12a1.51,1.51,0,0,0,.34.14l.29.18a3,3,0,0,1,.06.47.61.61,0,0,0,.18.26.62.62,0,0,1-.13.32.41.41,0,0,0-.19.2c0,.15,0,.31,0,.47a1.07,1.07,0,0,0,.1.38l.3.24.14.08a.37.37,0,0,1-.08.19l-.11.08,0,.28.25.23a1.26,1.26,0,0,1,.14.4c0,.11.07.23.1.35a3.2,3.2,0,0,0,.26.28c.05.11.11.22.17.33a.31.31,0,0,1-.15.15.38.38,0,0,1-.22-.24,3,3,0,0,0-.22-.28.93.93,0,0,0-.29-.2.57.57,0,0,0-.08.23l.18.32.33.2a1.86,1.86,0,0,0,.21.28l.3.21c0,.15.06.3.1.44a1.87,1.87,0,0,0,.1.41,1.29,1.29,0,0,0,.33.17l.29-.75,0-.32v-.12h0a1.38,1.38,0,0,1-.22-.29l.06-.52.06-2.12.05-.48c0-.54,0-1.07.05-1.6l.12-1.49.23-.33a1.07,1.07,0,0,0-.1-.36,1.13,1.13,0,0,1-.14-.39q.15-4.79.28-9.57l.9-.28c1.79-.33,3.58-.65,5.37-.94a1.64,1.64,0,0,1,.1.45l-.42,17.61-.05.47-.3-.27-.15-.09-.08.17a1.09,1.09,0,0,0,.11.43l.3-.12a1.26,1.26,0,0,1,.14.44c0,1-.05,2-.07,3l-.72-.17-.06-.47-.11,0-.31,0-.12.46a1,1,0,0,0,.22.27l.3.06.11,0,.31,0v.26a.25.25,0,0,0,.19.14.39.39,0,0,1,.19-.12l-.15,6a1,1,0,0,1-.12.41l-.3,0a2.91,2.91,0,0,0-.06-.74c0-.15-.1-.3-.14-.44a.22.22,0,0,0-.08-.1l-.23.06a1.25,1.25,0,0,0-.23.27l.18.37.1.48c0,.15-.06.3-.08.46a1.27,1.27,0,0,1-.39.12.61.61,0,0,1-.14-.4,2.24,2.24,0,0,0-.06-.52,1.14,1.14,0,0,0-.3-.21,1.51,1.51,0,0,0-.2.31l-.05.29.16.07.06.3-.15,0a.82.82,0,0,1-.26-.29.88.88,0,0,0-.26-.32,2,2,0,0,0-.1-.44l-.34-.12c-.05.12-.1.23-.16.35l-.09.45.15.39c.13.25.26.49.4.73s.09.27.14.4l.34.18a.85.85,0,0,1,.25.33l.18.37.38.18a.38.38,0,0,0,.27-.21c-.05-.31-.11-.62-.17-.92l0-.35a.17.17,0,0,0,.11-.06l1.2-.62c0,1-.05,2-.08,3-1.67-.24-3.34-.51-5-.78a4.07,4.07,0,0,1-.21-.37c0-.14-.07-.28-.11-.42l0-1.36a.17.17,0,0,1,.11-.06l1.33,0-.06-.46-.6-.54-.3-.08-.07,0-.83-.32a2.72,2.72,0,0,0-.11-.25.16.16,0,0,1,.08-.11l.31,0,.11.05a1.85,1.85,0,0,1,.34.21l.37.17c0-.13.08-.26.13-.39a1.31,1.31,0,0,0-.3-.2l-.81-.84a1.51,1.51,0,0,0-.42,0,.6.6,0,0,1-.27.25l-.69.11-.11-.06a1.13,1.13,0,0,0,.09-.34l-.15-.1a.63.63,0,0,1,.08-.23l.08-.15-.15-.1a.93.93,0,0,1,.27-.25l.3.08h.12v0a1.51,1.51,0,0,1,.31-.2.61.61,0,0,0,.16-.31,1.16,1.16,0,0,0-.22-.34l-.22-.11s-.06,0-.08.08l-.09.43a1,1,0,0,1-.34.16,2.31,2.31,0,0,1-.42-.17l-.37-.12a1.06,1.06,0,0,1-.29-.27q-1.09-2.82-2.16-5.48l-.18-.31c-.18-.48-.37-1-.55-1.42l-.18-.3c-.42-1-.85-2-1.27-3a.71.71,0,0,0-.29-.14l-.33,4.71c-.09.23-.19.46-.28.68a2.32,2.32,0,0,1-.28.24.5.5,0,0,0,.26.13l.19-.1.09.59v.51l0,.22,0,.07,0,.55a.71.71,0,0,1-.27.24,1.36,1.36,0,0,0,.14.34l.06.41,0,1.9-.38.1a.62.62,0,0,0-.09.28l.41.13,0,.11-.05.33c0,.48,0,1-.05,1.46q0,.19-.24.21a.72.72,0,0,0-.3.13.29.29,0,0,0,.21.3l.31-.13.18.32c0,.15.06.29.1.43l0,.47-.09.43a1.2,1.2,0,0,1-.35.08,1.22,1.22,0,0,1-.25-.2.51.51,0,0,0,.19-.22.63.63,0,0,0-.25-.27.46.46,0,0,0-.13.27,1.84,1.84,0,0,1-.41,0l-.18-.25-.18-.33a.58.58,0,0,0-.31,0,.93.93,0,0,1-.3.15l-.45-.12a.5.5,0,0,0-.24.2l-.15.11-.11-.13c0-.13-.07-.25-.1-.37l-.08.12a.65.65,0,0,1-.34,0,1.91,1.91,0,0,0-.42,0,1.91,1.91,0,0,1-.42,0l-.33-.21-.25-.26-.22-.28-.07-.12-.23,0-.12.31-.38,0-.27,0c.1-2.24.21-4.47.31-6.7a1.38,1.38,0,0,1,.09-.39h.9a1.31,1.31,0,0,1,.09.38l-.05.27.11,0c0-.08.09-.17.13-.26a.28.28,0,0,1,.12-.19h.33l.11,0,.3.06.12,0,.3-.15.34,0a2.39,2.39,0,0,1,.37.17l.66.34,0-.39a1.85,1.85,0,0,1,.41-.07l.37.13a.41.41,0,0,0,.23-.16.32.32,0,0,0-.14-.22l-.37-.17h-.45l-.34.12-.78-.27-1.16.18-.49-.07-.77-.23a.25.25,0,0,0-.27.18.82.82,0,0,1-.14-.28c0-.58.05-1.16.08-1.75,0-.14,0-.28,0-.42a.82.82,0,0,0,.2-.26.27.27,0,0,1-.21-.24l.18-3.93c0-.13,0-.26.05-.39a1.19,1.19,0,0,1,.14.32l.15-.2.15-.81c0-.78,0-1.56,0-2.34l.14,0a.93.93,0,0,0,.25.1l.09-.24,0-.1-.3-.06c0-.1-.09-.19-.13-.28l-.12.14c0,.41-.08.82-.13,1.23l-.12.21c.08-1.8.17-3.61.25-5.41l.05-.4,0-.46c0-.11,0-.21.05-.31l-.05,1.29c0,.26.05.51.07.77l-.06,1.29,0,.2a.34.34,0,0,0,.12-.12l.19-.33.24-.26.3-.22.33-.09.06-.37,0-.44a.79.79,0,0,1,.3-.12l.08-.21,0-.1-.25-.16c-.14-.42-.29-.84-.43-1.25l-.13-.27-.21-.19a.62.62,0,0,1-.17-.25Zm-.65,8c0,.33,0,.66,0,1l0,.1c0-.33,0-.65,0-1Zm.3-2.63-.08.11a1,1,0,0,0,.1.25,1.26,1.26,0,0,0,.09-.31Zm-.26,4.91c0,.11,0,.22-.05.33h.15A.92.92,0,0,0,449.68,1054.85Zm0,.66v.33l.07,0A.49.49,0,0,0,449.65,1055.51Zm0,1.52-.09,1.19.47-.52a.36.36,0,0,0-.06-.2A2.31,2.31,0,0,0,449.62,1057Zm-.16,2.85v.29h.14l0-.3Zm-.11,2.41v.17h.23A1,1,0,0,0,449.35,1062.29Zm.93-15.86,0,.22-.08.08Zm.08,4-.08.11a.3.3,0,0,0,.11.12v-.24Zm-.1,1.37c0,.08,0,.16,0,.24a.11.11,0,0,0,.1,0l.09-.2Zm0,4.9-.05.24h.26l.05-.24Zm-.44,11-.09.28.19,0,.05-.29Zm0-.61v.21l.09-.13Zm.91-17.44c0,.27,0,.53.08.79l-.06.45a.73.73,0,0,0,.3,0c0-.28,0-.57.07-.85a3,3,0,0,0-.1-.32A1.39,1.39,0,0,0,450.72,1049.67Zm-.17,3.93v.17l.22-.08Zm.05.67,0,.1v.57h.18l0-.44A.48.48,0,0,0,450.6,1054.27Zm.21-2.4a1.6,1.6,0,0,0-.12.35l.18,0a1.13,1.13,0,0,0,.13-.32Zm-.15,1.05.09.33.23-.08C451,1053,450.84,1053,450.66,1052.92Zm-.25,5.69a.18.18,0,0,0,.14.1A.22.22,0,0,0,450.41,1058.61Zm-.2,4.51v.2a.59.59,0,0,0,.2-.18Zm1.43-12.48a2.35,2.35,0,0,0-.21.5,1.74,1.74,0,0,0-.11.18l-.19,0-.07,0-.26,0a.51.51,0,0,0,.25.14.48.48,0,0,1,.24.38v.28a1.18,1.18,0,0,0,.3-.1c.09-.46.19-.92.28-1.39Zm-1.18,10.3a.91.91,0,0,0,.06.38l.11,0h.26a.46.46,0,0,0-.1-.28Zm-.34,8.71.26.1-.27.07Zm1.15-25.09c.05.15.09.31.13.47s.14.24.2.36l.28.32.15.11.26-.12a2.18,2.18,0,0,0,0-.29l0-.06,0-.09-.56-.6A1.78,1.78,0,0,0,451.27,1044.56Zm-.11,13a2.25,2.25,0,0,0-.08.24l0,.06,0,.11h.19a2.47,2.47,0,0,0,.09-.41Zm.17-4.8-.06,1.36.22.06.11,0,.06-.45c0-.26-.06-.52-.08-.78A.38.38,0,0,0,451.33,1052.81Zm0,2.41-.05.14,0,.37h.18l.06-.48Zm-.15,4.43c0,.17-.07.34-.1.51a.29.29,0,0,0,.21.25,1.57,1.57,0,0,0,.1-.44A.34.34,0,0,0,451.15,1059.65Zm.42-10.06,0,.41.19,0A.85.85,0,0,0,451.57,1049.59Zm-.44,13.15,0,1.17a.68.68,0,0,0,.22-.05c0-.18.07-.36.1-.54l0-.14A.55.55,0,0,0,451.13,1062.74Zm-.13,3a.59.59,0,0,0,.25.42A.56.56,0,0,0,451,1065.78Zm0,1.64,0,.52a.63.63,0,0,0,.18.24l.06-.47A.29.29,0,0,0,451,1067.42Zm.72-9.22a.61.61,0,0,0-.3.23h.14A.29.29,0,0,0,451.69,1058.2Zm.3-10.78a.34.34,0,0,0,.22.07Zm.48.85-.19.13.07.2A.93.93,0,0,0,452.47,1048.27Zm-1.07,21.6.41.08-.08.16h-.27Zm.51-6.08,0,.28h.26l.05-.24Zm.92.42a1.8,1.8,0,0,1-.38.3,1.31,1.31,0,0,0-.35.28l-.27.9.12,0c.06-.15.13-.3.2-.46a2.86,2.86,0,0,1,.28-.35l.31-.31a.74.74,0,0,0,.17-.3Zm-.34-13.57c0,.13.06.19.21.19S452.63,1050.65,452.49,1050.64ZM452,1066.2l0,.29.07,0,.19,0A.39.39,0,0,0,452,1066.2Zm0,.67a3.1,3.1,0,0,0,.06.39l.31,0,.05-.27Zm.5-11.34.07.1A.1.1,0,0,0,452.47,1055.53Zm-.12,4.88,0,.17,0-.14Zm-.15,7.37a.89.89,0,0,0-.12.26l0,.32a4.38,4.38,0,0,0,.29.48,2.76,2.76,0,0,1,.08-.27l0-.28A1.1,1.1,0,0,0,452.2,1067.78Zm.51-14.38a.5.5,0,0,0,.17.27A.34.34,0,0,0,452.71,1053.4Zm-.17,9.82a.25.25,0,0,0-.12.13,1.67,1.67,0,0,0,.3.07l.08-.17Zm.09-.55-.11.1.22,0A.15.15,0,0,0,452.63,1062.67Zm.56-12.87-.05.25.26,0A.38.38,0,0,0,453.19,1049.8Zm.33-4.73-.12.23.11,0a1.75,1.75,0,0,0,.4,0,.15.15,0,0,0,.08-.08l-.07-.17v-.07Zm-.21,2.48c0,.06.05.09.11.09Zm-.82,22.44a.5.5,0,0,1,.4.44l-.45-.09Zm.83-19c0,.14.06.27.1.41l.18-.09,0-.28Zm-.16,4.15a.43.43,0,0,0,.17.24A.37.37,0,0,0,453.16,1055.16Zm.09,2.4-.09.28h.26A.38.38,0,0,0,453.25,1057.56Zm.27-5.06a3.05,3.05,0,0,0-.1.72c0,.15,0,.3,0,.45l.15,0a.46.46,0,0,0,.11-.18l0-1Zm-.25,4.49a.36.36,0,0,0,.14.21A.26.26,0,0,0,453.27,1057Zm.63-9.53-.08.22.19-.06.12-.2Zm-.22,6.59c0,.12-.06.26-.09.43v.14l.22-.12.17-.36Zm-.24,4.25v.32h.19A.55.55,0,0,0,453.44,1058.3Zm.17,4.42-.08.18a.16.16,0,0,0,.1.08l.49.08.08-.25Zm.46-12.85,0,.43.23-.1,0-.18,0-.14Zm-.41,10.57a1.15,1.15,0,0,0,.09.44A.87.87,0,0,0,453.66,1060.44Zm.32,3.43a2.44,2.44,0,0,1-.36.36l.06.47h.11a.42.42,0,0,0,.32-.32l0-.51Zm-.4,3.54a.47.47,0,0,0,.1.2A.22.22,0,0,0,453.58,1067.41Zm.68-9.85-.09.18.26.26a.65.65,0,0,0,.28.4c0-.1.06-.19.08-.29l-.06-.29A.65.65,0,0,0,454.26,1057.56Zm.37-9.93,0,.14.15-.1Zm-.21,11.52a.61.61,0,0,0,.33.19A.36.36,0,0,0,454.42,1059.15Zm.13,3.4-.19,0,0,.22h.11l.19,0,0-.22Zm-.18.82a.41.41,0,0,0,.18.24A.36.36,0,0,0,454.37,1063.37Zm.17-3.39,0,.19.22,0c0-.11-.06-.19-.21-.23Zm0,1.77-.05.18,0,.08.22,0,0-.22Zm.48-6.9,0,.11H455l0-.07Zm.38-6.14a.4.4,0,0,0,.18.16A.4.4,0,0,0,455.37,1048.71Zm.18,1a2,2,0,0,0,.1.32A.47.47,0,0,0,455.55,1049.7Zm.41-4a.27.27,0,0,1,.32.28A.41.41,0,0,1,456,1045.72Zm0,4.52c0,.19,0,.39,0,.58l1.15-.11-.58-.28A2.17,2.17,0,0,0,456,1050.24Zm.3-2.23c.05.11.1.24.17.38a1.06,1.06,0,0,0,.37.06.86.86,0,0,0-.13-.39Zm.23-1.36.26.08-.26.07Zm.22,2.22c0,.13,0,.25-.05.38l.44,0A.49.49,0,0,0,456.73,1048.87Zm.33,1-.22.13.18,0,.19,0C457.2,1050,457.15,1049.93,457.06,1049.91Zm-.23,1.43a.64.64,0,0,0,.29.12A.45.45,0,0,0,456.83,1051.34Zm.53.7a2.52,2.52,0,0,0-.38.18l.18.21.31-.21A.21.21,0,0,0,457.36,1052Zm-.21.8,0,.48.15,0a1.09,1.09,0,0,1,.51.16l.14.3,0-.46.71-.11,0-.34a1.74,1.74,0,0,0-.52-.05,4,4,0,0,1-.52.15A2.7,2.7,0,0,0,457.15,1052.84Zm.24,3.7a.89.89,0,0,0,.21.41l-.06-.38Zm.49,1.13-.16.07c.08.11.15.23.22.34s.26.24.4.35a.19.19,0,0,0,.08-.15c0-.11-.07-.23-.1-.34A1.79,1.79,0,0,0,457.88,1057.67Zm.44-3.27,0,.31,0,.11.47.52a1.13,1.13,0,0,0,.29.15c0-.1,0-.18.05-.28-.14-.09-.27-.19-.4-.29s-.1-.2-.14-.3A.8.8,0,0,0,458.32,1054.4Zm-.07,4.41a3.53,3.53,0,0,0,.28.5c.09.15.2.31.32.48l.33.47a.62.62,0,0,0,.44.25l.05-.38-.1-.28a2.16,2.16,0,0,0-.29-.51,2.65,2.65,0,0,0-.44-.36A2.6,2.6,0,0,0,458.25,1058.81Zm.93-3.17a2.72,2.72,0,0,0,.1.46l.15,0A.46.46,0,0,0,459.18,1055.64Zm.42.72a.52.52,0,0,0,.25.43v-.35Zm0,2.21.06.47a1.59,1.59,0,0,0,.17.31l.22.28a.81.81,0,0,0,.3.13,2.12,2.12,0,0,0-.06-.43c-.05-.12-.1-.24-.14-.36l-.22-.24Zm.37-1.16a.57.57,0,0,0,.26.2A.41.41,0,0,0,460,1057.41Zm-.16,6.19v.2l.22,0A.66.66,0,0,0,459.82,1063.6Zm.18-2.06a.48.48,0,0,0,.4.5v-.35A1.56,1.56,0,0,0,460,1061.54Zm.5.74a1.83,1.83,0,0,0,.07.32l.3,0A.43.43,0,0,0,460.5,1062.28Zm1.4-.11-.23.11a1.39,1.39,0,0,1,0,.32v1.2l0,.11a.38.38,0,0,1-.35.29.56.56,0,0,0-.24.42,1.93,1.93,0,0,1-.27.41l-.13.54v.2l.23.06.07-.07c.05-.2.09-.39.13-.58l.71.27c.06-.56.11-1.11.17-1.67v-.56l.08-.08.08-.15,0-.4A1.21,1.21,0,0,0,461.9,1062.17Zm-.44,2.24.25.23-.34,0A1.31,1.31,0,0,1,461.46,1064.41Zm.21-3.41,0,.12c0,.16.07.32.1.48a.42.42,0,0,0,.37.26l0-.15,0-.45A.53.53,0,0,0,461.67,1061Zm1-3.1,0,.2h.11A.52.52,0,0,0,462.63,1057.9Zm1.12,4.1a2.59,2.59,0,0,1-.34.3l-.35.31a2.94,2.94,0,0,1-.53.08.35.35,0,0,0,.25.34l.46-.17a1.38,1.38,0,0,0,.35-.26l.38-.3,0-.29Zm-.94-1.27a1.74,1.74,0,0,0,.26.3l.37.09a.49.49,0,0,0-.22-.29Zm1.52-16.62c-.05.17-.11.34-.16.51a1.47,1.47,0,0,0,.1.44,3.31,3.31,0,0,1-.31.36l-.37,0a.23.23,0,0,0-.12.1l.86-.12v-.32c0-.32.07-.64.1-1A.13.13,0,0,0,464.33,1044.11Zm-.75,25.4,0,.46-.27-.08,0-.33Zm.86-20.11-.08.46a1.26,1.26,0,0,1-.24.3.6.6,0,0,0-.23.3.75.75,0,0,0,.14.32l.42-.07.08-.46,0-.61,0-.12Zm-.16-3.53-.12.38,0,.36a3.93,3.93,0,0,0-.1.83,4.61,4.61,0,0,0,.13.72,5.49,5.49,0,0,0,.17.67l.15,0,0-1.36,0-.15c0-.28,0-.55-.05-.82A.77.77,0,0,0,464.28,1045.87Zm-.47,11.43.15.09.08-.09Zm.14,5.61a.52.52,0,0,0,.19.26A.42.42,0,0,0,464,1062.91Zm.67-11.76c0,.42-.05.85-.07,1.27l.06.57a.39.39,0,0,0,.22.2l.12-.54,0-.62a2,2,0,0,0-.1-.53A.84.84,0,0,0,464.62,1051.15Zm-.23,7.1.24,3.46a.66.66,0,0,0,.3.15l-.21-3.48A.7.7,0,0,0,464.39,1058.25Zm.35-4.77-.19.09c0,.75,0,1.5.05,2.26l.09.78.38.08.21.62.36,3.12a2.94,2.94,0,0,0,.14.72H466l.12,1.43a6.35,6.35,0,0,1,.05.8,1.22,1.22,0,0,0,.11.34.53.53,0,0,0,.19-.2c0-.12.06-.25.08-.37-.07-1-.15-1.89-.22-2.83a1,1,0,0,0-.39.24,2.94,2.94,0,0,1-.13-.76l.09-.41.22.17c0,.09.08.19.14.3l.05-.38v-.29l-.34,0-.11,0a.75.75,0,0,1-.29-.59v-1.37l0-.34-.29-.54c-.06-.22-.13-.44-.2-.65l-.21-2.18Zm-.49,12.58a.35.35,0,0,0,.1.21A.27.27,0,0,0,464.25,1066.06Zm.32-3.69-.08.12h.12v-.13Zm-.22,6.75a1.51,1.51,0,0,0,.14.35l.16-.06,0-.08,0-.17Zm.76-22.25,0,.74a2.45,2.45,0,0,0,.09.53l.06-.75A1.1,1.1,0,0,0,465.11,1046.87Zm0,2.27,0,.33a1.53,1.53,0,0,0,.27-.11l0-.21Zm.51-5.09a1.86,1.86,0,0,0-.35.46l0,1.57a1.12,1.12,0,0,1,.36.25l.15,1.34c0,.21.09.41.13.61a2.38,2.38,0,0,0,.25.44l0-1.5c-.08-.42-.15-.84-.23-1.26a1.19,1.19,0,0,0-.28-.42l0-.78a.44.44,0,0,1,.38-.43A.36.36,0,0,0,465.6,1044.05Zm-.66,13.22c0,.16,0,.33,0,.49l.05-.37A.13.13,0,0,0,464.94,1057.27Zm1-6.71a1.23,1.23,0,0,0-.5.37,1.8,1.8,0,0,1,.21.73c0,.31-.07.61-.1.92v.25l.35-.35a.4.4,0,0,0,.38-.31l-.19,0-.07,0h-.08v-.5a5.79,5.79,0,0,1,.32-.68A.61.61,0,0,0,465.91,1050.56Zm-.62,12a3.9,3.9,0,0,0-.14.78l0,.66.11,0,.07.3-.09.49a3.52,3.52,0,0,0,.06.63c.14.75.28,1.5.43,2.25a.39.39,0,0,0,.33.33c0-.23,0-.47,0-.71-.12-.84-.23-1.67-.35-2.5a3.1,3.1,0,0,0-.13-.77,5,5,0,0,1-.21-.68,1.26,1.26,0,0,0,.39-.43A.67.67,0,0,0,465.29,1062.54Zm.44-19.42v.33l.08-.25S465.78,1043.13,465.73,1043.12Zm-.48,25.08,0,.5a.53.53,0,0,0,.27.16l0-.5Zm.58-19c0,.26,0,.52,0,.79h0l.07.24.26-.19.16-.34a.5.5,0,0,0-.07-.25A1.11,1.11,0,0,0,465.83,1049.2Zm.08,4c0,.77,0,1.53,0,2.29,0,.17.06.34.1.5s.09.28.14.42l.06.54v.21l.3,0,.06-.55c0-.54-.08-1.09-.11-1.63s-.23-.94-.34-1.41A1.35,1.35,0,0,0,465.91,1053.18Zm2.51,3.45v.39l-.19,0-1.14.5-.46.13a.63.63,0,0,0-.23.29c-.07.1-.13.2-.2.29a.71.71,0,0,0,.18.38c0-.15,0-.3.05-.46l1.25-.37.38-.16.27-.3a1.59,1.59,0,0,0,.2-.39l.05-.34Zm-2.12,7.65a3.21,3.21,0,0,1-.14.83l-.11.07c0,.2.09.4.13.6a4.57,4.57,0,0,1,.17.78,7.31,7.31,0,0,0,.17.77l.19,0-.24-2.34c0-.21,0-.43,0-.68Zm-.15,4.32-.12.19.19,0A.36.36,0,0,0,466.15,1068.6Zm.51-19.77,0,.17a.86.86,0,0,0,.2-.18Zm.21-3.74.07.16.34-.09A1.41,1.41,0,0,0,466.87,1045.09Zm-.43,22.61.06.69a.65.65,0,0,0,.29.37l-.06-.69A.4.4,0,0,0,466.44,1067.7Zm.62-17a2.34,2.34,0,0,0-.16.47.75.75,0,0,0,.22.36,1.25,1.25,0,0,0,.08-.42A.75.75,0,0,0,467.06,1050.74Zm-.08,1.68,0,.13,0,.34h.26l0-.47Zm.25,2a.72.72,0,0,0-.16.21A.27.27,0,0,0,467.23,1054.44Zm0,1-.08.47.15-.05s.06,0,.08-.08l0-.26Zm.84-9.62-.63.12a.22.22,0,0,0,.14.11H468l.15-.06A.16.16,0,0,0,468,1045.83Zm-.67,10.64a.83.83,0,0,0-.13.42h.19a.68.68,0,0,0,.12-.3Zm-.12,1.69,0,.63a.49.49,0,0,0,.34.14l.08-.38-.07-.13A.89.89,0,0,0,467.25,1058.16Zm.16,2.59-.09.42.23.09.09-.5Zm.17,5.5-.16.07,0,.72a1.21,1.21,0,0,0,.29.67,1.83,1.83,0,0,0,.16-.45l0-.35A1,1,0,0,0,467.58,1066.25Zm.1-2.64-.09.59,0,.64a.23.23,0,0,0,.07.13,3.62,3.62,0,0,0,.13-.67c0-.2,0-.4,0-.6Zm.17-8.47a1.09,1.09,0,0,0,.07.3v-.26Zm.08,1.41a.36.36,0,0,0,.18.12A.23.23,0,0,0,467.93,1056.55ZM467.8,1071c0,.18,0,.36-.05.54l0,.14.41.4,0-.73A.47.47,0,0,0,467.8,1071Zm.39-12.89-.08.34.11-.09v-.21Zm0,3-.08.42.12,1.08h.23a2,2,0,0,0-.13-.73C468.24,1061.68,468.2,1061.42,468.15,1061.16Zm0-.51.07.13.08-.17-.11,0Zm-.14,11.81,0,.43.15,0,.05-.38Z" class="cls-8" transform="translate(-52.38 -161.9)"/><path d="M479.85,1042.24l.39,0a.71.71,0,0,1-.06.25l-.47.29a.81.81,0,0,0,.5.12l.39,0,0-.25a.77.77,0,0,1,.39-.2h.17c-.05.15-.1.31-.14.47a.67.67,0,0,0,.23-.19l0-.41h.29a3.25,3.25,0,0,1,.43.29l.39.31a2.41,2.41,0,0,1,.17-.65l.64-.1a2.26,2.26,0,0,1,.6.08l.42.22.43-.33h.63l.57.12.43.27a2.35,2.35,0,0,1,.12.46l-.17.06,0,.42.16.16c.06.2.13.4.2.6s.05.47.08.71,0,.43,0,.64l.11.08.15.64.05.81a3.19,3.19,0,0,0,.21.56,3.19,3.19,0,0,1,.12.68,3.37,3.37,0,0,1,.12.72,2,2,0,0,1-.41.15V1049a3.22,3.22,0,0,0-.09-.72c-.06-.2-.12-.4-.19-.59l-.09-.73v-.52a.91.91,0,0,0-.16-.11l-.2,0,0,.52-.13.35.19.07,0,.65,0,.12a.85.85,0,0,1,.3.42,4.23,4.23,0,0,0,.12.68,2.58,2.58,0,0,1,.29.46l.5.19c.11.65.23,1.29.35,1.94l-.14-.05-.53,0v-.17a3.25,3.25,0,0,0,.16-.65,1.54,1.54,0,0,0-.15-.65,1.12,1.12,0,0,0-.3-.41,3,3,0,0,1-.27.57,2.07,2.07,0,0,0-.54.19.66.66,0,0,0-.23.34H486l1-.17.13,0,0,.12a1.76,1.76,0,0,0-.15.44,1.79,1.79,0,0,1,.16.68l.13.17.24,0,.06-.05.34,0-.07.34a1.1,1.1,0,0,1-.54.23s0,0-.06.09l.06.25.16.09.43,0,0,.22a4.43,4.43,0,0,0-.14.6,2.19,2.19,0,0,0,.36.39c0,.15.08.31.13.47l-.16,0-.2.06a1,1,0,0,0,.09.42,1.24,1.24,0,0,1,.32.43c-.05.22-.11.43-.17.65.09.48.17,1,.25,1.44a.81.81,0,0,0,.3.46l.2.14a1.43,1.43,0,0,1-.11.39,3.7,3.7,0,0,1,.1.61.43.43,0,0,1-.41.38l.16.18h.31v.48a2.66,2.66,0,0,0,.19.65l.24.57c.16.94.33,1.89.5,2.83a5.55,5.55,0,0,0,.1.75,2.88,2.88,0,0,0,.08.74l.06.8a7.11,7.11,0,0,1,.13.75c0,.22.11.44.16.66a6.38,6.38,0,0,1,.13.7c.07.48.15,1,.22,1.45a5.82,5.82,0,0,0,.09.75l0,.88a2.2,2.2,0,0,1-.18.65,1.92,1.92,0,0,1-.51.18l-.2,0-.07.46,0,.45.54-.19c.06.33.13.65.19,1,0,.17,0,.35,0,.52l0,.35a1.24,1.24,0,0,1-.51.18l-.64-.09a2.8,2.8,0,0,1-.51-.3l0,.26,0,.08-.67,0c0-.12-.07-.23-.1-.35l-.34-.06,0,.2a.81.81,0,0,1-.54.13l-1.38-.12a1.52,1.52,0,0,0-.34-.15l-.13,0-.67-.06a1.63,1.63,0,0,1-.57-.22l-.09-1.24.2-.06.41-.36v-.55l-.16,0-.24.54-.34-.08c-.07-1-.15-2-.22-3a1.24,1.24,0,0,0,.16-.24l-.22-.48-.19-.6c-.06-.49-.13-1-.19-1.45l-1.94-.11a1,1,0,0,1-.3-.52c-.07-.74-.13-1.48-.19-2.22V1064l.49,0,0-.41h-.17l-.14.28a.39.39,0,0,1-.26-.18l-.1-.17c0,.14-.07.28-.1.41l.15,3-.64-.09-.1.05h-.47l-.1.08c-.18,1.18-.35,2.37-.53,3.55a.48.48,0,0,1-.32.46l-.56-.17a.58.58,0,0,0-.41.29l-.41.28-.51.19a2.22,2.22,0,0,0-.11.36l.24,0a.73.73,0,0,1,.39.37l0,.44-.07.11.06,0a.64.64,0,0,1-.27.18h-1.08l-.17,0a1.28,1.28,0,0,1-.22-.5,3.62,3.62,0,0,1-.16-.63l-.12-2.54-.2.11-.07-.1-.25-.5c-.12-.39-.24-.79-.35-1.18l-.08-.73-.2-.13v.39l.06.68a3.64,3.64,0,0,0,.14.65,4.16,4.16,0,0,0,.23.54l-.07.32c.09.3.19.6.29.9l.12.62q.06.29.12.69c0,.2,0,.4,0,.6l0,.11a1.8,1.8,0,0,1-.27.49l-.38,0c-.06-.78-.12-1.56-.19-2.33l0-.08a2.84,2.84,0,0,0-.09-.69.32.32,0,0,0-.26-.3l0,.16,0,1.51c0,.19.07.41.12.65s.1.25.14.37l0,.23a1.94,1.94,0,0,1-.28.48l-.44-.08,0-.21c0-.26,0-.52,0-.78a.84.84,0,0,0-.22-.55c0,.51-.05,1-.07,1.53l-.1.07-.41-.17-.48-.3-.15,0,.1.29a1.7,1.7,0,0,1-.4,0l0-.28c0-.26,0-.51,0-.77l.12-.65.24-.52v-.31l.11-.3a.94.94,0,0,1,.25-.52l.15.6,0-.16c0-.38,0-.76,0-1.14l0-.1v-.56c.31-1.58.63-3.17.94-4.77a3.13,3.13,0,0,1,.15-.63l.27,0,0-.44,0-.55,0-.2c0-.25,0-.5,0-.75a3.35,3.35,0,0,1,.27.45c0,.18.08.4.12.68a2.94,2.94,0,0,0,.12.64.29.29,0,0,0,.09.16,1.34,1.34,0,0,0,.14-.32l.24-.15-.13-.19c-.08-.18-.15-.36-.23-.53a4.59,4.59,0,0,1-.12-.64c0-.5,0-1,0-1.51a2.67,2.67,0,0,0,.32-.48c0-.26,0-.53,0-.79l-.13,0q.45-2.77.9-5.59l.37.07.33-.06,0-.19,0-.08a1.26,1.26,0,0,1-.15-.44l.13,0a1.41,1.41,0,0,0,.17-.57c.24-1.37.47-2.76.71-4.15v-.81l0-.6.36-1.41.34-.48a.82.82,0,0,0,.39.21l.67-.06a.65.65,0,0,1,.33-.44l.2-.1L479,1043l-.27.06a1.29,1.29,0,0,1,.14-.34l.47-.08.09-.09A.8.8,0,0,0,479.85,1042.24Zm-8.1,29.52a.36.36,0,0,0,.17.13A.26.26,0,0,0,471.75,1071.76Zm.47-1.4a1.13,1.13,0,0,0-.2.29l.23.27.16,0,0-.28A1.14,1.14,0,0,0,472.22,1070.36Zm.11,1.12,0,.54a2.32,2.32,0,0,0,.09.49V1072A1.89,1.89,0,0,0,472.33,1071.48Zm.3-4-.05.51,0,.47.13.4c0,.35,0,.71,0,1.06l-.18.3a.8.8,0,0,0,.26.22c0,.14.09.27.13.41l.17,0-.18-2.7v-.56A1.08,1.08,0,0,0,472.63,1067.46Zm.08-.79v.08l.06,0Zm2.08-3.83a2.09,2.09,0,0,1-.47.25,4.06,4.06,0,0,0,.08.73,1.21,1.21,0,0,0,.38-.34,4.27,4.27,0,0,0,.07-.56A.09.09,0,0,0,474.79,1062.84Zm0-3.4-.17,0,.06.51C474.69,1059.83,474.73,1059.65,474.76,1059.44Zm-.23,4.54,0,.52,0,.12c.07.15.15.3.23.45l.21,1.17.09,2.37.16-.1c0-.45.07-.9.1-1.35s0-.92-.05-1.37a2.72,2.72,0,0,0-.15-.54l0-.52a2.43,2.43,0,0,0-.18-.49A4,4,0,0,0,474.53,1064Zm.48-7.08.15.51a.29.29,0,0,0-.13.12l0,.52.2,0a3,3,0,0,1,.21-.76A.36.36,0,0,0,475,1056.9Zm.56-3.05c-.12.23-.24.46-.35.69l.13,0,.35-.37,0-.27Zm-.32,2.29a.48.48,0,0,0,.33.39c0-.13,0-.26-.05-.39Zm0,4.76a2.22,2.22,0,0,0-.11.36l.14,0,.11-.32Zm-.08.8a.13.13,0,0,0,.07.12.42.42,0,0,0,.13-.11Zm0,1.87v.53h.23A.92.92,0,0,0,475.15,1063.57Zm.29-8.53a.4.4,0,0,0-.1.17l.16.08.07-.2Zm.14-3.6.17,0a3.33,3.33,0,0,1-.12.56.18.18,0,0,1-.1-.08C475.55,1051.79,475.56,1051.61,475.58,1051.44Zm.34,1.48a.45.45,0,0,0-.37.25l-.05.32v.11h.1v0c.11-.1.21-.21.31-.32l.14-.33Zm.09-3.31c0,.08.08.16.13.24l-.1.12Zm.22-1.29h.17v.27h-.17Zm.2,21.71c0,.15,0,.3,0,.45l.24,0v-.44Zm.67-12.81-.24.11a1,1,0,0,0,.17.34l.35.48h.21a1.46,1.46,0,0,0-.14-.48A1.61,1.61,0,0,0,477.1,1057.22Zm-.28,2.31a2,2,0,0,0,.06.48l.05-.4A.15.15,0,0,0,476.82,1059.53Zm1.4-10.9-.2.06,0,.65c0,.14-.07.28-.1.42a.84.84,0,0,1-.24-.16,1.22,1.22,0,0,1-.19-.23l-.3.09c.09.18.19.35.29.52a.81.81,0,0,0,.52.26,1,1,0,0,1,.29-.63l.29-.06-.06-.44A1,1,0,0,0,478.22,1048.63Zm-1.09,7.08,0,.21.06.16.17,0,0-.32Zm-.27,12.74a1.44,1.44,0,0,0,.06.4l0-.23,0-.09S476.9,1068.48,476.86,1068.45Zm.53-19.69v.1h0l.13,0Zm.13,14.68c0,.23,0,.47,0,.7l0,.08-.12,3-.05.37,0,1.75.14,0v-.62l0-.11c0-.26,0-.51,0-.77l.09-1.51,0-1.42,0-.08c0-.45,0-.9,0-1.34Zm.12-2.68c0,.47-.07,1-.1,1.43l.14,0c0-.2.05-.4.07-.61v-.11A1.84,1.84,0,0,0,477.64,1060.76Zm-.07,2.07a.82.82,0,0,0,.09.38A.88.88,0,0,0,477.57,1062.83Zm.28-4.67c0,.16-.07.32-.11.48l-.09,1.06a2,2,0,0,0,.06.49,3.34,3.34,0,0,0,.08-.49c0-.35,0-.7.08-1.06Zm0-1.31c0,.18-.05.35-.08.53a.59.59,0,0,0,.13.29,2.75,2.75,0,0,0,.1-.5A.63.63,0,0,0,477.88,1056.85Zm.37-13.72.23,0a.41.41,0,0,1-.21.34.6.6,0,0,1-.19-.22Zm-.12-.85.31,0-.09.3-.22.1Zm.5,7.56c0,.19,0,.39,0,.58a.56.56,0,0,0,.13.24l.3.18a.76.76,0,0,0,.26.16l0-.12-.06-.29c0-.11-.11-.21-.16-.32l-.23-.28Zm.21-4.23c0,.21.05.41.08.61a.7.7,0,0,0,.23.28c0-.24,0-.47.05-.71v-.21Zm.1,1.72a.28.28,0,0,0,.26.3l.07-.28Zm.65,6.87-.18.09a1.86,1.86,0,0,0,.1.37l.14-.12A1,1,0,0,0,479.59,1054.2Zm-.07,10-.13.07v.25l.07,0,.1-.08v-.28Zm.13-3.35c0,.17,0,.33,0,.49a.49.49,0,0,0,.23.14c0-.15.05-.31.08-.46A.56.56,0,0,0,479.65,1060.85Zm-.07,4.17v.46l.4,0A.67.67,0,0,0,479.58,1065Zm.42-21.44a1.57,1.57,0,0,0,.25.48,1.77,1.77,0,0,0,.46.08,1.26,1.26,0,0,0-.19-.47A1.94,1.94,0,0,0,480,1043.58Zm-.05,11.07-.07.33.13,0a.89.89,0,0,0,.1-.29Zm.29.7-.31.22,0,.2.2,0a1,1,0,0,0,.24-.25l.07-.21Zm1.23-6.55c-.38,3.63-.76,7.23-1.14,10.82,0,.21,0,.42,0,.62a1.41,1.41,0,0,0,.19.34l.09,1.08a.51.51,0,0,0,.26.18l.31-.21a.45.45,0,0,0,.2-.24l-.3-.21a1,1,0,0,1-.26-.3.88.88,0,0,1,.24-.33,1.19,1.19,0,0,1,.36.09.65.65,0,0,0,.21.34,1.83,1.83,0,0,0,.4.09l.17-.41.74-.28a.53.53,0,0,1,.27-.17,1.36,1.36,0,0,0,.34.23c.12,0,.18-.16.2-.35l-.6-.43-.39-.5,0,.16v.17a.43.43,0,0,1-.22-.17q-.37-5.17-.74-10.29A.28.28,0,0,0,481.47,1048.8Zm-.59-7,.37,0v.38l-.3,0Zm-.05,20.37a1,1,0,0,0-.25.62,2.23,2.23,0,0,1,.19.67,1.36,1.36,0,0,0,.18-.58A2.3,2.3,0,0,0,480.83,1062.13Zm.25-17.93v.21l.34-.08A1.2,1.2,0,0,0,481.08,1044.2Zm.45-1.08a.77.77,0,0,0,.12.37l.11,0,.26-.06a1,1,0,0,0-.06-.33Zm0,18.57-.07.25,0,.08.06.13.2-.08a1.64,1.64,0,0,0,.1-.37Zm-.09,4a.34.34,0,0,0,.09.2A.4.4,0,0,0,481.41,1065.66Zm.47-23.86a.4.4,0,0,1,.26.14H482l-.2.1Zm-.13,23.87a.57.57,0,0,0,.12.26A.45.45,0,0,0,481.75,1065.67Zm.76-24.06.5,0,.1,0a.86.86,0,0,1,.13.32l-.87.07Zm-.16,1.82a.59.59,0,0,0,.13.29A.51.51,0,0,0,482.35,1043.43Zm.09,1.21a.43.43,0,0,0,.12.32l0-.34Zm.16,8.17a.34.34,0,0,0-.09.17A.24.24,0,0,0,482.6,1052.81Zm0-2.48a.35.35,0,0,0,.1.2A.26.26,0,0,0,482.64,1050.33Zm-.1,9.37.26,0,0,.3A.45.45,0,0,1,482.54,1059.7Zm.24,1.69a2.82,2.82,0,0,0-.11.55l.17,0a1.64,1.64,0,0,0,.11-.41Zm.28-16.46-.08.35.21-.06.07-.31Zm.1-2.36c0,.06,0,.1.07.11a.32.32,0,0,0,.13-.13Zm-.07,18.11.09.42a.68.68,0,0,0,.31.14,4,4,0,0,0-.06-.47Zm.48-7.72c-.13,0-.22.12-.27.29l.13,0a.85.85,0,0,0,.28-.26Zm-.29,6a.79.79,0,0,0,.27.56l.46.25a.39.39,0,0,0-.36-.43A1.22,1.22,0,0,0,483.28,1058.91Zm.14-6.71a.39.39,0,0,0,.19.12A.39.39,0,0,0,483.42,1052.2Zm3.42,11.29-.57.21c-.87.73-1.74,1.44-2.61,2.15a.31.31,0,0,0-.25.32,2,2,0,0,0,.54-.22,3.28,3.28,0,0,0,.44-.32l.92-.65.55-.23a4.58,4.58,0,0,0,.33-.46l.41-.37A.46.46,0,0,0,486.84,1063.49Zm-2.77-22a2.31,2.31,0,0,1,.72.07.4.4,0,0,1,.37.22l-.27.07-.56.05-.13,0-.11,0a1,1,0,0,1-.26-.28Zm-.19,3.86c0,.05.05.08.1.07Zm.08,4a.25.25,0,0,0,.16.08Zm.59,3-.48.18a1.51,1.51,0,0,0-.13.36h.13a.61.61,0,0,1,.3.08l.11-.13A3.06,3.06,0,0,0,484.55,1052.33Zm-.66,8.57,0,.3a.13.13,0,0,0,.09.09A1.32,1.32,0,0,0,483.89,1060.9Zm-.14,7.67a.56.56,0,0,0,.09.21A.4.4,0,0,0,483.75,1068.57Zm.28-17.23,0,.42.26-.06A.91.91,0,0,0,484,1051.34Zm.43,17.48-.48,0v.39l.17.09.13.52.19.4a.16.16,0,0,0,.11.09l.17-.16a.66.66,0,0,0-.1-.31,4.18,4.18,0,0,1-.13-.51C484.5,1069.19,484.48,1069,484.46,1068.82Zm-.34-7.31.09.63a.32.32,0,0,0,.23.3l0-.46-.06-.18A.92.92,0,0,0,484.12,1061.51Zm.79-6.07c0,.15-.08.31-.11.46l-.34.13a1.2,1.2,0,0,0-.16.34l-.09.47a.25.25,0,0,0,.17.08l.4,0c.06.12.11.25.17.37a.44.44,0,0,0,.19.25l.17,0-.06-.22a.86.86,0,0,1-.19-.34l.2-.3-.23-.25-.07-.29.14,0,.3-.17-.19-.3Zm-.5,4.24-.24.08,0,.52.12.81.17,0v-.68Zm0-14.16a.46.46,0,0,0,.39.4l0-.14-.06-.28Zm-.06,9a1.64,1.64,0,0,0,.06.42v-.33A.1.1,0,0,0,484.39,1054.5Zm-.11,9.63a.38.38,0,0,0,.1.22A.37.37,0,0,0,484.28,1064.13Zm0,3c0,.38,0,.76,0,1.14l.27,0a3.39,3.39,0,0,0-.09-.59C484.41,1067.5,484.34,1067.33,484.28,1067.16Zm.21-1.1c-.06.14-.11.28-.17.41l.2-.11.28-.24Zm-.19,4.67,0,.42h.17v-.42Zm.45-28a.36.36,0,0,0,.13.25A.85.85,0,0,0,484.75,1042.69Zm-.4,29a.41.41,0,0,0,.13.26A.71.71,0,0,0,484.35,1071.66Zm.24-10.66.06.35.31,0A.45.45,0,0,0,484.59,1061Zm.23-13.43a2.84,2.84,0,0,0,.05.51l.31-.1,0-.13,0-.3Zm-.34,26.44c0,.17.06.28.17.32l.07-.3Zm1.42-22.61-.41.18-.64.58a.23.23,0,0,0,.14.13l1.13-.55v-.34Zm-.6-5.77a.86.86,0,0,0-.2.27l.26.2.24.28.33-.05a1.59,1.59,0,0,0,.07-.4l0-.21-.13.14a.35.35,0,0,1-.24-.12A.82.82,0,0,0,485.3,1045.63Zm-.32,21.94-.14,0a1.58,1.58,0,0,0,.13.31.86.86,0,0,0,.33.27l.08-.3,0-.13A1.52,1.52,0,0,0,485,1067.57Zm.15-1a1.22,1.22,0,0,0-.08.43h.1c0-.11.05-.23.07-.34A.16.16,0,0,0,485.13,1066.6Zm-.05,3.15a.33.33,0,0,0,.16.15A.29.29,0,0,0,485.08,1069.75Zm.48-28.4.43,0,.11,0,.06.38-.11.13-.37-.06-.15-.07Zm-.13,24.5a.62.62,0,0,0-.23.29.51.51,0,0,0,.13.3,1.26,1.26,0,0,0,.2-.28l0-.31Zm-.19,4.3-.1.33a.12.12,0,0,0,.09.09l.08-.33A.11.11,0,0,0,485.24,1070.15Zm.2.95c0,.1-.08.19-.11.29l.07,0,.1-.16A.11.11,0,0,0,485.44,1071.1Zm0-1,.2.13A.46.46,0,0,0,485.41,1070.08Zm.21-7.9a1.65,1.65,0,0,0,.13.47l.26.22-.09-.51A.83.83,0,0,0,485.62,1062.18Zm0,5.86a1.59,1.59,0,0,1-.07.2l.14.06A2.5,2.5,0,0,1,485.61,1068Zm.15-9.44,0,.25a.14.14,0,0,0,.13.09A.57.57,0,0,0,485.76,1058.6Zm-.06,13.07a.44.44,0,0,0,.36.33A1.42,1.42,0,0,0,485.7,1071.67Zm.09-5,0,.44.07,0,.16,0,.07,0A.36.36,0,0,0,485.79,1066.71Zm-.09,6.9.07.17,0-.17Zm.34-5.21-.07.26.13-.05.08-.16Zm0,6a.83.83,0,0,0,.16.36,3,3,0,0,0,.43.12.89.89,0,0,0-.15-.4Zm.62-9.1a.8.8,0,0,1-.48.32c0,.19.05.37.07.56l.13,0a1.1,1.1,0,0,1,.41-.42l.11-.42Zm-.51,2.2v.61l.21-.12.09-.08a4.94,4.94,0,0,0,.51.2.77.77,0,0,0-.26-.49Zm.63.9-.07.17.07.39v.12a.36.36,0,0,1-.34.41l-.22,0a1.15,1.15,0,0,0,.09.34,2.12,2.12,0,0,1,.57.17,1.18,1.18,0,0,0,.37.19c-.08-.24-.15-.49-.23-.74s0-.32,0-.48l.07-.25,0-.31Zm-.17,3a.67.67,0,0,0,.1.3l0-.29Zm.33-6.82,0,.25.07-.17v-.08Zm.09,6.24,0,.61a1.33,1.33,0,0,0,.3.23l-.09-.52A.9.9,0,0,0,487,1070.86Zm.08-4.43v.39c0,.07,0,.11.06.13A2.37,2.37,0,0,0,487.07,1066.43Zm.23-4.43v.22a.59.59,0,0,0,.2-.16Zm0,1.55,0,.48.24-.08c0-.13,0-.26.07-.39Zm0,4,0,.43h.13A2.51,2.51,0,0,0,487.26,1067.52Zm0-1.85a.43.43,0,0,0,.28.13Zm.32,7.61a2.16,2.16,0,0,0-.31.19.25.25,0,0,0,.2.28,2.2,2.2,0,0,0,.31-.15A.3.3,0,0,0,487.6,1073.28Zm-.17-5.32a.67.67,0,0,0,.13.27A1.13,1.13,0,0,0,487.43,1068Zm.3-5.26a.83.83,0,0,0-.14.3A.43.43,0,0,0,487.73,1062.7Zm.53.63a.47.47,0,0,0-.34.28v.18l.37,0,.07-.26.23,0v-.2Zm-.3,5a.75.75,0,0,0,.17.4v-.39Zm.39-9.67a.29.29,0,0,0,.16.21A.34.34,0,0,0,488.35,1058.61Zm-.06,10.91,0,.12,0-.12Zm.23,3.22a1,1,0,0,0-.27.28l.2.11a.55.55,0,0,0,.3-.2A.83.83,0,0,0,488.52,1072.74Zm.59-7.09a.32.32,0,0,0-.31.25.91.91,0,0,0,.33.1.66.66,0,0,0,.31-.21A1.22,1.22,0,0,0,489.11,1065.65Zm-.34,8.45v.22l.2,0A.7.7,0,0,0,488.77,1074.1Zm.31-9.1a1.92,1.92,0,0,0,.23.35A.38.38,0,0,0,489.08,1065Zm.18,7.31a.94.94,0,0,0-.07.3h.17l.07-.3Zm.69-.48-.27.19-.11.22a.17.17,0,0,0,.13,0,.43.43,0,0,0,.31-.1l0-.31Zm-.26-1.07v.18a.38.38,0,0,0,.16-.17Zm.12,3.89-.1.12a.88.88,0,0,0,.23.24A.75.75,0,0,0,489.81,1074.65Zm.83-1.56a1.23,1.23,0,0,1,.33.29c0,.16.09.32.13.48v.66a2.09,2.09,0,0,1-.11.53.37.37,0,0,1-.23-.33c0-.22,0-.44,0-.66l-.07-.57A1.25,1.25,0,0,1,490.64,1073.09Z" class="cls-8" transform="translate(-52.38 -161.9)"/><path d="M494.68,1041l.66,0,.09,0,2.64-.07a.22.22,0,0,1,.13.09v.76l.12.53.89-.19v.4a4.2,4.2,0,0,0,.59.36l-.45.48c-.12.22-.24.43-.37.64a1.24,1.24,0,0,1-.49.5l-.23.09.27.86-.32.14-.14.44,1.52.63c.09.24.18.48.26.71l.09.71,0,.16,0,.52-.32,0a.93.93,0,0,1-.44-.52l0-.24a1.55,1.55,0,0,0-.44.2,55.69,55.69,0,0,1,1,.85,3.88,3.88,0,0,0,.44.51c0,.12-.09.23-.13.35l-.45,0c0,.07.09.13.13.19l.05.14-.05.38.26.1.14.09a1.6,1.6,0,0,1-.23.54.26.26,0,0,0-.18.09,1.76,1.76,0,0,0,.36.29s.06,0,.09.08a4.53,4.53,0,0,0-.05.77l-.5.06-.27.38.1.19a3.2,3.2,0,0,0,.44.48,1.29,1.29,0,0,1,.36.62v.66l0,.11-.05.14a.82.82,0,0,0-.27.48,1.42,1.42,0,0,1,.13.38h-.45l-.49-.24v.19l.26,0,.1.39-.1.1a2.42,2.42,0,0,0-.23.61l.4.58a.87.87,0,0,0-.45.47,1.31,1.31,0,0,1,.22.68.48.48,0,0,0-.14.24l.27,1.09-.05.14a.77.77,0,0,1-.54-.43,1.56,1.56,0,0,0-.36-.58v.87l.36.52.26-.09c0,.43-.09.86-.14,1.28H499a2.09,2.09,0,0,0,.55-.38,2.71,2.71,0,0,1,.45-.52l.05.19c0,.18,0,.35-.05.53l-.05.15a1.53,1.53,0,0,0-.14.47.38.38,0,0,0,.13.19l.1.43-.41,0,.36.28c0,.18,0,.36,0,.54l-.31.08a1.66,1.66,0,0,0-.14.43l.22.15a.47.47,0,0,1,.28.35l-.37-.06-.67-.25-.27,0a1.54,1.54,0,0,0,.22.39,2.42,2.42,0,0,1,.17.81v.68l.18,0,.45.06.18,0,.1.16-.06,1a3.65,3.65,0,0,1-.14.87l-.13.37.26.39c0,.19-.09.38-.14.57l-.05.66a.21.21,0,0,1-.13.1,2.54,2.54,0,0,1-.5-.45,6.27,6.27,0,0,1-.13-.86l-.09-.29-.45.08-.22.19a.55.55,0,0,0,.18.29l.4.15-.09.34a.67.67,0,0,0-.5.46l.45.5-.46.07a.38.38,0,0,0-.14-.28l-.45.26c.06-.23.12-.47.19-.7a.33.33,0,0,0-.18-.11v-.61l-.18-.16a.87.87,0,0,1,.37-.51,6.59,6.59,0,0,1,.59-.36l.27-.13,0-.49-.22-.05-.1.05h-.08l-.15.29-.59.37a5.92,5.92,0,0,0-.18.75l-.23.13c.05.3.09.6.13.91l-.31.09c0-.32,0-.64-.05-1a2.7,2.7,0,0,0-.72.16l-.51.41-1.13.23a1,1,0,0,1,.19-.31l.13-.43a3.2,3.2,0,0,0,.28-.26l-.13-.16a1.18,1.18,0,0,1,.72-.21c.16,0,.25-.13.27-.32l-.72.08c0-.1-.08-.2-.13-.3l-.63-.11Zm-.23,31.08a1.78,1.78,0,0,1,.17.49l.18,1.14a.85.85,0,0,0,.45-.12c.09-.34.19-.69.29-1a.13.13,0,0,1,.13-.08l.27.1,1.54.4a.32.32,0,0,0,.09-.24,3.22,3.22,0,0,1-.05-.38l.23,0a.38.38,0,0,1,.32.34,1.06,1.06,0,0,0,.31.36.91.91,0,0,1,.36.29l.36,1a.94.94,0,0,0,.37.26,1.74,1.74,0,0,1,.45.26,2.15,2.15,0,0,1-.5.12c-1.68-.06-3.36-.14-5-.23,0-.44,0-.88,0-1.32S494.43,1072.47,494.45,1072Zm.89-30.73a1.17,1.17,0,0,0-.23.49l.21,1.17a.59.59,0,0,0,.31.27l.23-.43c0-.22,0-.44,0-.67s-.08-.37-.13-.56A.65.65,0,0,0,495.34,1041.31Zm-.38,24.22a.74.74,0,0,0,.27.16A.92.92,0,0,0,495,1065.53Zm.71,1.36a3,3,0,0,0-.5.36c-.05.16-.09.31-.14.46a.19.19,0,0,0,.08.16,1.21,1.21,0,0,0,.42-.42A2.69,2.69,0,0,0,495.67,1066.89Zm-.13-23.41c0,.22,0,.44-.05.67l.28-.06,0-.47Zm.06,15.11a.43.43,0,0,0-.1.19l.1.43a1.16,1.16,0,0,0,.36.38l0-.53,0-.14A2.82,2.82,0,0,0,495.6,1058.59Zm-.11,1.42.27,1.23.31.81.27-.13.1-.33-.05-.15c0-.43,0-.85,0-1.28Zm.08-2.79.09.57.13-.11,0-.23,0,0v-.19Zm.61,13.52a.52.52,0,0,1,.4.5v.24l-.32,0-.08-.14-.45,0c0-.11-.06-.22-.1-.33Zm0-4.6c-.08.22-.16.44-.23.65a1.45,1.45,0,0,0,.32.44l.22,0c0-.16-.06-.31-.08-.47Zm-.11-3.09c0,.21.09.41.13.62l.32-.05v-.51Zm.23,4.8c-.05.22-.09.45-.14.67a.91.91,0,0,0,.36.2,1,1,0,0,0,.23-.56A1.34,1.34,0,0,0,496.29,1067.85Zm0,3.86.27.23a.72.72,0,0,1-.14.24,1.27,1.27,0,0,1-.27-.29Zm0-7.8v.33l.36-.08A1,1,0,0,0,496.32,1063.91Zm.21,9.32a.3.3,0,0,0,.22.15Zm.37-26.57a.45.45,0,0,0,.23.14Zm.15,4.84-.09.19h.31A.46.46,0,0,0,497.05,1051.5Zm.16-2.38-.15.19A.25.25,0,0,0,497.21,1049.12Zm0-6.55a1,1,0,0,0-.09.42l.13,0,.41-.06c0-.08.08-.16.13-.24l-.09-.14Zm-.12,10.22a2.06,2.06,0,0,0-.05.38v.14h.05l.36.24.17,0-.09.27a1.59,1.59,0,0,0,.18.4l.09-.49-.09-.51A1.47,1.47,0,0,0,497.13,1052.79Zm0,7-.06.9a.49.49,0,0,0,.4.43c0-.44,0-.89,0-1.33Zm.23,11.23c0,.27.05.54.08.82l-.18,0-.05,0a5.4,5.4,0,0,1-.13-.72A.83.83,0,0,0,497.36,1071Zm-.08-21.13.05.33.49-.06,0-.28Zm.66,2-.54.1a.27.27,0,0,0-.08.15.5.5,0,0,0,.13.19l.45-.16.13-.19A.12.12,0,0,0,497.94,1051.83Zm-.39-6.76a.32.32,0,0,0,.13.24A.36.36,0,0,0,497.55,1045.07Zm0,5.82.08.27.23,0,.08,0A.49.49,0,0,0,497.51,1050.89Zm.45-7.55a1.08,1.08,0,0,0-.32.35l.27-.06a.8.8,0,0,0,.31-.3Zm-.17,11.34-.1.68c.1.36.21.73.31,1.1a.78.78,0,0,0,.22.42c0-.24,0-.48,0-.71l.1-.33-.1-.16a.65.65,0,0,1-.21-.51v-.49Zm.27,12.36-.17,0a.79.79,0,0,0,.13.39l.18-.28A.21.21,0,0,0,498.06,1067Zm.32-14.21a1.47,1.47,0,0,0-.36.38,1.44,1.44,0,0,0,.46.19.41.41,0,0,0,.31-.33A.43.43,0,0,0,498.38,1052.83Zm-.29,4.29v.62l.27-.09,0-.48Zm0,1.05,0,.38a.46.46,0,0,0,.23.09l0-.33Zm.38-8.83.31.18A.79.79,0,0,0,498.46,1049.34Zm0,13.12a2.54,2.54,0,0,0-.09.54,1.89,1.89,0,0,0,.27.47c0-.32.09-.63.14-1Zm.09,1.2a1.32,1.32,0,0,0-.1.38.21.21,0,0,0,.1.15l0-.38v-.15Zm.07-16.9.17.48a.63.63,0,0,0,.36.13l0-.39-.13-.09Zm.32-1.34.18.32h-.23Zm.55-1.54.4,0a1.15,1.15,0,0,1-.09.34l-.36.06Zm-.12,10.27a.4.4,0,0,0,.45.38A.59.59,0,0,0,499.36,1054.15Zm.15-9.08a1,1,0,0,1,.4.27h-.4Zm.09,1h.31v.24h-.32Zm-.11,24.64.35.06.05.14-.05.1-.31,0Z" class="cls-8" transform="translate(-52.38 -161.9)"/><path d="M507.86,1040.53h5.25l2.63.72,1.15.6,1,.8.72,1.18.18.5a1.07,1.07,0,0,0,.22.39l.18.44c.09.37.17.75.26,1.13l0,.62a2.52,2.52,0,0,1,.18.49c0,.6.06,1.21.08,1.81h-.18a3.85,3.85,0,0,0,.08.49c0,.89.08,1.78.11,2.67,0,.42-.09.85-.14,1.27s-.17.71-.25,1.07l-.4.87-.5.73a1.89,1.89,0,0,0-.26.39l-.21.39-.29.35-.8.34h-.47v0a1.85,1.85,0,0,0,.11.54l1.42,1,.51.73.14.5a.91.91,0,0,1,.22.33v.73a1.54,1.54,0,0,0,.19.44c0,.17,0,.35,0,.53h-.15l-.25.35a.36.36,0,0,0-.19.25l.29.1c.11-.15.22-.31.34-.46l.15,5.36-.47.45.15.15.36.23a2.31,2.31,0,0,1-.07.49l-.33.29-.5.3a.72.72,0,0,1-.08-.29c0-.21,0-.42.07-.63v-.68a.36.36,0,0,0-.26-.34l-.95.16-.06.34a.13.13,0,0,0,.1.1l.44.09.19.2-.16.09-.06.1,0,0a1.19,1.19,0,0,0-.29,0l-.52-.05-.22-.14a.16.16,0,0,0-.1.11v.73c0,.18-.07.35-.11.53l-.15.24-.07-.24a4,4,0,0,1-.07-.58c0-.21-.05-.42-.07-.64l-.19-.09-.33.59-.61.59c0,.23,0,.46,0,.69a1.57,1.57,0,0,0,.32.24,1.69,1.69,0,0,1,.15.48l-.18.4a1.46,1.46,0,0,0,.15.49q.22,0,.33-.3a1.49,1.49,0,0,1,.4-.15.64.64,0,0,0,.37-.16c0-.18.09-.36.14-.54l.29.29.44-.14.18.48.33-.16.18,1.18.26,0a.2.2,0,0,0,.07-.1l0,0a1.11,1.11,0,0,1-.26-.38.74.74,0,0,0,.22-.46c.12,0,.2.12.25.29a.59.59,0,0,0,.3-.14c0-.22,0-.43-.08-.64l-.25-.33a.46.46,0,0,1,.18-.4.4.4,0,0,1,.25.39l.4.18c0,.2.06.4.08.59.14.53.27,1.06.41,1.59a1.26,1.26,0,0,0,.18.48c.09.36.17.71.26,1.07l.3.28a2.11,2.11,0,0,1-.45.1q-2.52.09-5,.12a8.22,8.22,0,0,0-.63-1.65l0-.68a1.45,1.45,0,0,0-.18-.49c0-.21,0-.43,0-.64l-.18-.49.25-.34c0-.13.05-.26.07-.4a.11.11,0,0,0-.07-.09l-.07.29a.31.31,0,0,1-.18-.09l0-.7c0-1.17,0-2.34,0-3.51a2.2,2.2,0,0,1,.06-.5c0-.21,0-.42,0-.63s-.07-.39-.11-.59a1.14,1.14,0,0,0-.22-.44c0-.21-.05-.42-.07-.63a2.88,2.88,0,0,0-.11-.54,3.45,3.45,0,0,1-.1-.59,1.54,1.54,0,0,0-.19-.44l-.29-.34a2.56,2.56,0,0,0-.22-.39l-.32,0,0-.2-.11,0-2.25.28a2.19,2.19,0,0,0-.37.25l-.08.59-.12,13q-3,0-5.92-.09l0-.33v-.69a.76.76,0,0,1,.26-.38l0-.35-.1.15-.15-.44,0-5.71,0-.63v-.73c0-.22,0-.43,0-.64a2.15,2.15,0,0,1,.19-.49l.34-.28a1.79,1.79,0,0,0,.21-.39.23.23,0,0,0-.15-.14l-.06.24a1.52,1.52,0,0,1-.38.24l0,.33a.23.23,0,0,1-.18-.09l.06-12.78a3,3,0,0,1,.07-.64l0-.43c0-3.37,0-6.73,0-10.09a.54.54,0,0,1,.2.24,1.23,1.23,0,0,1,.22.38,2.42,2.42,0,0,0,.25.4l.5.72a2.45,2.45,0,0,1,.22.43,1.92,1.92,0,0,1,.25.38.63.63,0,0,0,.25-.09,2.36,2.36,0,0,0,.22-.45c0-.18.08-.36.11-.53l-.39.14-.34.06-.06-.15a2.47,2.47,0,0,0-.11-.58l-.61-.58c-.06-.14-.12-.29-.17-.43l-.08-.34h.26l.39.15.43-.16c.67,0,1.34,0,2,0a.59.59,0,0,1,.17.48l.08.59a1.19,1.19,0,0,1,.18.44c0,.67-.06,1.34-.08,2a1,1,0,0,0-.36.19.47.47,0,0,0-.29.16l-.14.54a.39.39,0,0,0,.18.28l.1-.58a1.1,1.1,0,0,0,.4-.19h.36v.2a2,2,0,0,1,.26.43l.1.54a.36.36,0,0,1-.18.3.94.94,0,0,0-.36.25,1.3,1.3,0,0,1-.22.38l-.44.16a1.57,1.57,0,0,1,.22-.45h.14l-.46-.58a.55.55,0,0,0-.29.09l-.22.41a1.86,1.86,0,0,0,.11.53.65.65,0,0,1,.18.29l.57.63.48.84a3.43,3.43,0,0,0,.24.33,1.81,1.81,0,0,0,.22.44,1.14,1.14,0,0,1,.29.29,1.55,1.55,0,0,0,.21.45c0,.2,0,.39.08.58l-.4.2h-1.09a.36.36,0,0,0-.25-.14l-.43.14-.12.3.4.4c0,.11-.07.22-.1.33a.11.11,0,0,0,.06.1,1,1,0,0,1,.4-.1,1.77,1.77,0,0,0,.18.45l.11.09.22-.19a1,1,0,0,1,.36-.15c0,.25-.07.49-.11.74l.18-.11a1.13,1.13,0,0,1,.29.35l.11.24-.18.09-.08.11v.33l0,0a.73.73,0,0,0,.36-.2l.15-.25a.36.36,0,0,0,.11.21.68.68,0,0,0,.25-.35l-.07-.3.36-.24a1.77,1.77,0,0,1,.07.54,2.26,2.26,0,0,1-.22.44l-.36.19-.15.54.12.54a1.27,1.27,0,0,1,.43.16l.43.82a1.52,1.52,0,0,0,.26.35.82.82,0,0,1,.36.24.75.75,0,0,0,.21.39l.44-.14c0,.2.07.39.1.59l.34.25a2.63,2.63,0,0,0,.07-.49l-.15-.49a1.22,1.22,0,0,1,.3-.3l.36-.2a1.46,1.46,0,0,0,.33-.29,1,1,0,0,1,.32-.24l.32-.06.12,0v.11c.08.35.16.71.25,1.07l-.43.4-.26-.11-.29-.05c-.16.36-.32.72-.47,1.08l-.33.25.33.15a.87.87,0,0,0,.29-.26.4.4,0,0,0,.25.26l.11-.1-.11-.3,0-.44.14.06a.32.32,0,0,1,.22.19.59.59,0,0,0-.14.33,3,3,0,0,1,.1.54c-.07.14-.14.27-.22.4l0,.34c0,.06,0,.09.07.1l.44,0a.51.51,0,0,0,.1-.25,1.75,1.75,0,0,1,.22-.43.82.82,0,0,1,.33.29c0,.21,0,.42,0,.63a1.08,1.08,0,0,0,.18.49,1.57,1.57,0,0,0,.36-.19c0-.18,0-.36,0-.54l-.08-.63c0-.2,0-.4.08-.6a2.18,2.18,0,0,1,.22-.43l.28-.3a1.58,1.58,0,0,1,.34-.29,2.15,2.15,0,0,0,.36-.25,2.53,2.53,0,0,0,.14-.49,1.13,1.13,0,0,1,.36-.24l.4-.19a.43.43,0,0,0,.29-.2c0-.18.06-.38.1-.59l.34.06h.1v0a1,1,0,0,0,.18-.44l-.5,0-.18.43-.33.3-.36.19a.86.86,0,0,0-.33.24,2.35,2.35,0,0,1-.21.45,1,1,0,0,0-.3.29l-.28.15a.28.28,0,0,1-.12-.1v-.74l-.06-.59-.34-.24a.94.94,0,0,1,.18-.25.57.57,0,0,0,.34-.24,2.73,2.73,0,0,1,.28-.33l.36-.21.22-.43a.59.59,0,0,1,.29-.25.9.9,0,0,1,.33.25l-.08-.49a1.58,1.58,0,0,0-.28-.3.68.68,0,0,0-.36.25l-1.49-.1a.77.77,0,0,1-.36-.29c0-.2-.05-.4-.08-.6a3.71,3.71,0,0,1,0-.38l0-.16a1.35,1.35,0,0,0-.14-.49.53.53,0,0,1-.26-.38c-.08-.36-.17-.73-.25-1.09,0-.14-.08-.3-.15-.49s-.09-.36-.14-.54l-.18-.43-.26-.39a1.8,1.8,0,0,0-.38-.16.9.9,0,0,1-.37-.24c0-.62-.05-1.24-.07-1.86l0-.15.79,0-.07-.19a1.7,1.7,0,0,0-.26-.34.57.57,0,0,1-.21-.45l.25-.39c0-.18.07-.36.11-.54a2.77,2.77,0,0,0-.15.49l-.39.16c-.16.68-.32,1.36-.47,2l.08,0a1.7,1.7,0,0,1,.1.49l0,.68a1.17,1.17,0,0,1-.46-.09c-.08-.13-.15-.26-.22-.39l-.22-.09.07.57a.34.34,0,0,1-.25-.09l-.26-.34a1.16,1.16,0,0,0-.24-.34c-.06.17-.13.33-.19.49a.87.87,0,0,1-.07.29l0-.25a2.15,2.15,0,0,0-.36.25.41.41,0,0,1-.29.1,1,1,0,0,0-.21.35l0,.63.18.05.07-.05v-.79h.15l.43-.09a1.48,1.48,0,0,1,.18.49c-.08.6-.17,1.2-.25,1.81l.18.5a1.08,1.08,0,0,1-.22.44l-.4.14a1.48,1.48,0,0,1-.1-.39l.14,0c.14,0,.23-.13.25-.35l-.29-.29-.25-.34a1.22,1.22,0,0,1-.29-.4l-.07-.58c0-.55,0-1.11-.07-1.67a.55.55,0,0,0,.18.16.46.46,0,0,1,.29-.35l.47.05a1.57,1.57,0,0,1-.25-.35,3.42,3.42,0,0,1,.18-.54.69.69,0,0,1,.14.45v.19a.28.28,0,0,0,.22-.14l-.07-.64a.94.94,0,0,0-.18-.44l-.21,0,0,.29-.3.1-.06-.15c0-.19-.08-.39-.11-.59a1.28,1.28,0,0,0-.21-.38,1.15,1.15,0,0,1-.33-.3,1.58,1.58,0,0,0-.21-.38l-.08-.64c0-.48,0-.95,0-1.42S507.85,1041,507.86,1040.53Zm-4,14.06a2.62,2.62,0,0,1,.15.84l-.22.1c.05.11.1.24.15.38l.07.64.18-.1a.93.93,0,0,0,.57-.29,1.82,1.82,0,0,1-.5-.44l0-.24a.79.79,0,0,0,.34.14l.06-.49-.32-.05A1,1,0,0,0,503.83,1054.59Zm-.12,12.45v.44l.15-.1.07-.34Zm.08-10.2a.79.79,0,0,0,.19.39.52.52,0,0,0,.28.2l-.14-.44A.67.67,0,0,0,503.79,1056.84Zm.9,11.47-.19.44-.43,0-.33.14a.93.93,0,0,0,.15.44,1.14,1.14,0,0,1,.25-.3l.36-.13.3-.24A2.19,2.19,0,0,0,504.69,1068.31Zm-.81-24.34a.3.3,0,0,0,.18.13A.3.3,0,0,0,503.88,1044Zm-.07,15.56v.28l.12-.24Zm.22-15.08c0,.16,0,.33,0,.49l0,.14.1.05,0-.05c0-.21,0-.42,0-.63Zm0,7.32.25,0,.07,0Zm.06.54-.06.19.21,0Zm-.11,18.23a3.74,3.74,0,0,1,.15,1c-.06.23-.13.45-.19.68h.19l.14,0,0-.87A1.29,1.29,0,0,0,504,1070.54Zm.28-4.38-.23.59.12,0,.21-.1C504.29,1066.52,504.26,1066.34,504.23,1066.16Zm.16-4.87a1,1,0,0,0,.14.43v-.43Zm.72-16.51-.48.2a.61.61,0,0,0-.14.14c0,.14.05.27.08.4a1.6,1.6,0,0,0,.5-.16c0-.15,0-.29.07-.44v-.14Zm-.66,9.57a.49.49,0,0,0,.15.34l0-.34Zm-.06,15.28a1.51,1.51,0,0,0,.11.43A1,1,0,0,0,504.39,1069.63Zm.27-22.21a.23.23,0,0,0,.11.14l.33-.1Zm.2,15.42-.26.54.08,0,.47-.59Zm0-11.32a3.15,3.15,0,0,0-.11.58l.18-.09.18-.3Zm0,14.94c0,.17-.05.33-.07.49a.17.17,0,0,0,.06.14l0-.49v-.14Zm0-7.42a1.31,1.31,0,0,0,.12.53Zm.16,5.56c0,.41-.09.82-.14,1.22h.18l.12-.63v-.53Zm.11,3.82-.23.1a.64.64,0,0,0,.11.24l.18,0v-.24Zm-.1-13.53a1.49,1.49,0,0,0,.1.39A.69.69,0,0,0,505.07,1054.89Zm0,1.16a.61.61,0,0,0,.21.5A.78.78,0,0,0,505.07,1056.05Zm.23-14.7c0,.2-.08.4-.11.59l.21,0a1.89,1.89,0,0,0,.11-.44Zm0,27.9c0,.28,0,.55,0,.82l.11.06v-.73A.24.24,0,0,0,505.27,1069.25Zm.08-21.59.07.48.22-.05v-.44Zm0,15.72,0,.16,0-.15Zm.07-11.08a.48.48,0,0,0,.15.28A.69.69,0,0,0,505.4,1052.3Zm.23-.69-.12.19h.22A.39.39,0,0,0,505.63,1051.61Zm-.09,4a.35.35,0,0,0,.07.21l0-.21Zm0,6.07v.24a.55.55,0,0,0,.15-.24Zm.27-14.61-.15.14A.18.18,0,0,0,505.82,1047Zm.7,20.63a1.18,1.18,0,0,1-.3.29l-.4,0a1.18,1.18,0,0,0-.07.43l.07.06.18,0h.08l.76-.24.07-.54Zm-.56,4a.33.33,0,0,0-.18.24Q505.95,1072,506,1071.7Zm-.07-13.3.07.3.19-.1A1.21,1.21,0,0,0,505.89,1058.4Zm.15-12.9c0,.16-.05.33-.07.49h.18l0-.49Zm.37-1.18a.42.42,0,0,0-.36.3l0,.19.29-.15.4-.1A.38.38,0,0,0,506.41,1044.32Zm-.24,5.77,0,.45h.33A.5.5,0,0,0,506.17,1050.09Zm0,1.62a.39.39,0,0,0,.1.19A.23.23,0,0,0,506.13,1051.71Zm-.07,20.68v.34l.15,0,0-.29Zm.17-28.51c0,.09.07.14.14.15A.29.29,0,0,0,506.23,1043.88Zm.12,8.37a.9.9,0,0,0-.12.24A.46.46,0,0,0,506.35,1052.25Zm0,8.6,0,.34.22,0A.59.59,0,0,0,506.32,1060.85Zm.42,3.62v1c-.08.52-.15,1-.22,1.57l-.18.14a.61.61,0,0,0,.21.24l.15-.73a4.5,4.5,0,0,0,.19-.68l0-.89v-.63Zm-.24-14.82a.87.87,0,0,0,.25.35,1.15,1.15,0,0,0,.21.33l-.06-.58Zm.12,18.92-.08.16c0,.13,0,.25.08.38l0-.38v-.16Zm-.05,3.49,0,.28h.12v-.24Zm.08-1,.18.54.15.09.36-.05a.84.84,0,0,0-.29-.33A1.8,1.8,0,0,0,506.65,1071Zm.17-8.67a1.59,1.59,0,0,0,.11.6A2.53,2.53,0,0,0,506.82,1062.36Zm.1-20.39a.71.71,0,0,0,.06.24l0-.24Zm0,18.25-.07.29h.19A.45.45,0,0,0,506.93,1060.22Zm-.07,3.28v.09h0v-.09Zm.06.09a2.62,2.62,0,0,0,.12.54h.24A1.23,1.23,0,0,0,506.92,1063.59Zm.12-1.85a.62.62,0,0,0,.11.33Zm.28-12.2c0,.12-.07.23-.1.35l.07.14c.07.12.14.25.21.4l.08-.4,0-.14C507.54,1049.7,507.47,1049.58,507.32,1049.54Zm.14,18.8a1,1,0,0,0-.25.34l.14.44a.53.53,0,0,0,.18-.28Zm.15-1-.26.05a1.56,1.56,0,0,0,.18.54c.09-.2.18-.39.26-.59Zm-.19,2.35a.4.4,0,0,0,.11.2A.23.23,0,0,0,507.42,1069.71Zm.82-10.87-.5.3a1.53,1.53,0,0,0-.11.54,1.23,1.23,0,0,0,.4-.39A1.34,1.34,0,0,0,508.24,1058.84Zm-.58,5.39a.4.4,0,0,0,.28.39A.52.52,0,0,0,507.66,1064.23Zm.26-6.21-.07.28.21-.09A.33.33,0,0,0,507.92,1058Zm0-8.43,0,.19.08.06,0-.15Zm.11.64-.15.49.18,0a1,1,0,0,0,.15-.39Zm-.1,10.83,0,.52h.14l.08-.19c0-.11,0-.22-.08-.33Zm0,9.63,0,.2.22,0c0-.16-.09-.25-.22-.26Zm.17-29.22v.54l.33,0A.55.55,0,0,0,508.1,1041.47Zm0,14.88c0,.07-.05.13-.07.2h.15Zm-.1,11.31c0,.23,0,.45.08.68l.1-.09.08-.59Zm.17-7.44a.52.52,0,0,0,.11.19A.24.24,0,0,0,508.21,1060.22Zm.2,6.86-.15,0a.35.35,0,0,0,.12.24l.14-.24Zm-.11-1a.92.92,0,0,0,.33.69A1.07,1.07,0,0,0,508.3,1066.09Zm.49-23.16a.77.77,0,0,0-.33.3l0,.68.25-.1v.15h0l0,.06a.63.63,0,0,0-.19.33l.44-.14a1.39,1.39,0,0,0,.22-.4,1.57,1.57,0,0,1-.18-.44A.9.9,0,0,0,508.79,1042.93Zm-.29,15.53a.4.4,0,0,0,.18.14A.28.28,0,0,0,508.5,1058.46Zm.07-16.07a.3.3,0,0,0,.15.2A.43.43,0,0,0,508.57,1042.39Zm.07,20c0,.26.05.53.07.79,0,.5-.1,1-.14,1.52a1.44,1.44,0,0,0,.06.43l.15-.68c0-.24.05-.49.07-.73,0-.43,0-.85,0-1.28Zm.05-5.48a2.26,2.26,0,0,0,.22.63l.06.24.3-.14a1.57,1.57,0,0,0-.15-.43A1.66,1.66,0,0,0,508.69,1056.94Zm0,11.56a2.37,2.37,0,0,0,.08.49l.36,0,0-.35Zm.07-12.79v.34l.14-.09A.34.34,0,0,0,508.73,1055.71Zm.28,3.62c-.06.51-.13,1-.19,1.52a3.53,3.53,0,0,1-.07.7l0,.52.15-.09a1.09,1.09,0,0,0,.26-.48,6.32,6.32,0,0,1,.1-.79v-.64l0-.15A1.73,1.73,0,0,0,509,1059.33Zm0-1.31-.1.19A.22.22,0,0,0,509,1058Zm0-13.57,0,.34.24-.09.12-.25Zm0,20.28v.43l.15-.08,0-.35Zm.1-10.48h.32l.08.49a.25.25,0,0,1-.08.14l-.25.1C509.17,1054.74,509.15,1054.49,509.13,1054.25Zm.34-11.32-.14.14A.18.18,0,0,0,509.47,1042.93Zm.08-1.43-.11.75.07,0,.11,0a5.88,5.88,0,0,0,.11-.75Zm0,15-.07.25,0,.09.14,0a3.08,3.08,0,0,0,.07-.39Zm.23-13a1.49,1.49,0,0,0-.14.45h.26a3,3,0,0,0,.1-.45Zm.49,11.37.36.19.48-.14h.29a1.38,1.38,0,0,1-.11.3l-.76.53-.22.2-.14-.15-.18-.54A3.68,3.68,0,0,1,510.28,1054.93Zm-.19-9.07v.49l.29,0A1.27,1.27,0,0,0,510.09,1045.86Zm.24-1.08,0,.4h.34v-.4Zm.49,11.18h.4a1.21,1.21,0,0,1-.22.44l-.32.1A2.66,2.66,0,0,0,510.82,1056Zm.13-10.48v.28l.07-.24Zm0,.58a2.15,2.15,0,0,0,0,.4.16.16,0,0,0,.06.14l.08-.44Zm.5-2.89a1.41,1.41,0,0,0-.14.49.29.29,0,0,0,.18.3.65.65,0,0,0,.14-.45v-.34Zm-.12,17.54,0,.19.25.11.08,0,0-.25Zm.2-18.71-.12.09c0,.1.06.2.08.3l.14-.05.11-.3Zm1.65,11.71.19.09a.55.55,0,0,0-.12.24l.3.16c.14,0,.24.13.28.35l-1.38.87-.39.14-.26,0,0-.29.15-.49.36.2a2.11,2.11,0,0,0,.22-.4l.18-.29v.2a.68.68,0,0,0,.22-.2l-.18,0,.06-.34Zm-1.24,6.07c.07.17.13.33.19.49a.3.3,0,0,0,.25.3,1.64,1.64,0,0,0-.14-.5A1,1,0,0,0,512,1059.78Zm.09-14a1.59,1.59,0,0,0,.14.55.52.52,0,0,1,.26.43l0,.7a1.66,1.66,0,0,0,.25-.35c.09-.13.19-.25.29-.38l-.22-.4a2,2,0,0,1-.28-.35A2.49,2.49,0,0,0,512.07,1045.81Zm1.22,11.62h.51l-.07.38a4.11,4.11,0,0,0,.07.75l-.58-.15,0-.49Zm.3,3.91.18.35v-.35Zm.47-5.38,0,.34-.32,0A.53.53,0,0,1,514.06,1056Zm-.11-5.29a.64.64,0,0,0,.1.35A.71.71,0,0,0,514,1050.67Zm0,13.13,0,.33a.16.16,0,0,0,.11-.09A.38.38,0,0,0,514,1063.8Zm.08-7.25.36,0,0,.35-.25,0C514.11,1056.84,514.08,1056.7,514.06,1056.55Zm1,11.69a4.44,4.44,0,0,0-.62.34,1.43,1.43,0,0,0-.26.45,3.42,3.42,0,0,0,.63-.25A1.91,1.91,0,0,0,515.08,1068.24Zm-.26-14.34.28.06a.4.4,0,0,1-.32.29c-.07.25-.15.49-.22.73a1.54,1.54,0,0,1-.29-.78A1.09,1.09,0,0,1,514.82,1053.9Zm-.22-1.36a.37.37,0,0,0,.18.24A.76.76,0,0,0,514.6,1052.54Zm.26,7.87-.15.15.15.34h.61a1.5,1.5,0,0,0,.12-.34Zm.36-2.6a2.1,2.1,0,0,1-.4.54,3.12,3.12,0,0,0,.51.4,2.31,2.31,0,0,1,.32.63l.58-.19v-.63l-.22-.16a1.43,1.43,0,0,1-.32.49.88.88,0,0,1-.36-.49c0-.19.07-.39.11-.59Zm-.22,1.38c0,.08,0,.16-.07.24l.14,0Zm.45,6.55-.08.34,0,.1,0,.14a.62.62,0,0,0,.32.4c0-.18,0-.36-.07-.54A4.91,4.91,0,0,0,515.45,1065.74Zm0,8a.83.83,0,0,0,.1.34A.79.79,0,0,0,515.46,1073.71Zm1.1-14.47a4.56,4.56,0,0,0-.25.54,1,1,0,0,0-.3.43c0,.25-.06.49-.1.74l-.14.34.18,0a.56.56,0,0,1,.29.45,1.3,1.3,0,0,0,.36.38l.3.1c-.06-.21-.13-.42-.19-.64a.17.17,0,0,1,.07-.14,1.45,1.45,0,0,1,.4.19l.33.1v-.29a.63.63,0,0,0-.33-.4l-.87-.52a1.57,1.57,0,0,1,.22-.45c.19,0,.28-.16.29-.44A1.34,1.34,0,0,0,516.56,1059.24Zm-.73-4.74a.67.67,0,0,0,.18.33A.77.77,0,0,0,515.83,1054.5Zm0,16.47h.22c0,.2,0,.4,0,.6A1.08,1.08,0,0,1,515.85,1071Zm.8-4.16a1.22,1.22,0,0,0-.59.39,1.35,1.35,0,0,0-.18.44l.22.15a1.92,1.92,0,0,0,.36-.64l.37-.06v-.28Zm-.41-1.07a1.49,1.49,0,0,0-.18.38h.18l.15,0A.63.63,0,0,0,516.24,1065.74Zm-.18,2.58v.45l.19-.06c0-.13,0-.26,0-.39Zm.49-13.77c-.09.1-.19.19-.28.28v.25l.25-.09.33-.2A.55.55,0,0,0,516.55,1054.55Zm-.21,2.34,0,.4.28-.21Zm0,7,0,.2h.06v-.2Zm0-13.57,0,.25v-.21Zm0,12.54a.49.49,0,0,0,.4.35A1,1,0,0,0,516.38,1062.84Zm1.15-10.58-.51.14-.32.34c0,.11-.05.22-.08.34l.62.29.15.3.1-.14a3,3,0,0,1-.14-.59l0-.44h.15l0,0a.44.44,0,0,0,.22-.19Zm-.74,15.86v.1l.08,0Zm.07-7.77v.35l.28,0A.32.32,0,0,0,516.86,1060.35Zm.32-1.22c0,.39.05.78.08,1.17l.28,0a4.14,4.14,0,0,0,.08-.64.12.12,0,0,0-.08-.09A2.66,2.66,0,0,0,517.18,1059.13Zm.17-2.68-.06.35.54,0A.46.46,0,0,0,517.35,1056.45Zm0,10a.81.81,0,0,0,.12.38A.89.89,0,0,0,517.37,1066.46Zm.07-3.9c0,.12,0,.25,0,.38l.11.1.3,0,.06-.35Zm.19,3.35a.27.27,0,0,0,.18.19A.64.64,0,0,0,517.63,1065.91Zm.24,7.86-.08.19H518A.5.5,0,0,0,517.87,1073.77Zm0-19.42q0,.27.24.3A.51.51,0,0,0,517.83,1054.35Zm.06-1.55c0,.11,0,.22,0,.33l0,.16.14.09.08-.05.08-.34,0-.15Zm0,9.16.08.59h.18A.81.81,0,0,0,517.91,1062Zm.18-.64,0,.15h.12A1.09,1.09,0,0,1,518.09,1061.32Zm.19,6a.69.69,0,0,0-.1.25A.29.29,0,0,0,518.28,1067.31Zm-.08-6.67a.37.37,0,0,0,.18.24A.37.37,0,0,0,518.2,1060.64Zm.41-8.91a1.35,1.35,0,0,0-.25.43l.15-.05a1,1,0,0,0,.24-.38Zm.07-1.32-.25.15a.33.33,0,0,0,.14.19l.18,0c0-.09,0-.19,0-.29Zm.19,15.49a1.41,1.41,0,0,0-.29.39h.14l.22,0,0-.29Zm-.18,3.21a.39.39,0,0,0,.18.16A.31.31,0,0,0,518.69,1069.11Zm.18-16.79c0,.19,0,.38-.08.57a.47.47,0,0,0,.19.16l.15-.45A1.14,1.14,0,0,0,518.87,1052.32Zm.22-1.07-.15.24.11.14a.52.52,0,0,0,.14-.24A.19.19,0,0,0,519.09,1051.25Zm.19,19.31a.59.59,0,0,1,.18.48A2.2,2.2,0,0,1,519.28,1070.56Z" class="cls-8" transform="translate(-52.38 -161.9)"/><path d="M530.81,1040.83l.24.56.41.33.44.26.35.37a2.16,2.16,0,0,0-.18-.5c-.13-.1-.27-.19-.41-.28a1.29,1.29,0,0,1-.38-.39.29.29,0,0,1,.08-.13l.43.07.35.15a.11.11,0,0,0,.1-.07l.07-.27.37,0a1.82,1.82,0,0,0,.44.26l2.87.56.93.5.3.43a4.64,4.64,0,0,1,.15.66l0,.38.11.14a.47.47,0,0,0,.26-.41v-.31l.34.12a1.79,1.79,0,0,1,.35.37l-.06.51a.83.83,0,0,1,.43.21l-.09.34.13,0,0,0a.74.74,0,0,1,.37.14,1.88,1.88,0,0,1,.18.62l0,.48.17,0h.17l-.06.56-.67.3a.68.68,0,0,0,.07.26l.55.12c0,.09.07.19.1.31l-.06.85-.11-.14a1.45,1.45,0,0,1-.2-.52.62.62,0,0,0-.15-.22l0,.34c0,.22,0,.43,0,.64l0,.14c.05.4.1.8.16,1.21l-.11.07c-.05.16-.11.32-.16.47s-.21.25-.31.37v.35l.09.35a1.06,1.06,0,0,0,.23.17l.11-.16a2.55,2.55,0,0,1,.29-.38l.17-.08c0,.27,0,.55,0,.82l.34,0,.55.15a1.6,1.6,0,0,1,.45-.16c-.07.42-.13.85-.19,1.28a2.68,2.68,0,0,0,.15.64c0,.42.05.85.08,1.27l-.17-.05a1.24,1.24,0,0,1-.31-.33,2,2,0,0,1,.19-.47,3.78,3.78,0,0,1-.2-.52l.06-.64-.26-.47a1,1,0,0,0-.43-.14.12.12,0,0,0-.11.08l.07.26.11.08c0,.25,0,.49.07.73l.18.56a.93.93,0,0,1-.4.12,1.43,1.43,0,0,0-.28-.13l-.1.17c-.07.45-.13.89-.19,1.33a5.74,5.74,0,0,1-.13.65l-.34.34a2,2,0,0,0-.13.6c.09.14.19.28.28.43l0,.43,0,.13c0,.21,0,.43,0,.64a.24.24,0,0,0,.07.18l.2-.05v-.48l.06-.67a2.76,2.76,0,0,0,.19-.53c.05-.71.09-1.43.14-2.14a1.33,1.33,0,0,1,.17-.6.65.65,0,0,1,.28.48,5.93,5.93,0,0,0-.09.68l0,.73c0,.23.05.46.08.68a.72.72,0,0,0,.28.35l.33-.39a1.09,1.09,0,0,0,.1-.43l-.17,0a1.54,1.54,0,0,1,.1-.44l-.11-.64a.82.82,0,0,1,.34-.16c0,.28.09.57.14.85,0,1.28,0,2.55,0,3.83a1.4,1.4,0,0,0-.36.3.73.73,0,0,1,.41.25c0,.26,0,.51,0,.77s0,.42-.1.67l-.06.48,0,.16c0,.24,0,.49.08.73-.05,1-.09,1.93-.13,2.9a5.12,5.12,0,0,1-.09.68c-.06.43-.13.86-.19,1.29-.23.77-.47,1.54-.7,2.32l-.71,1.52-1.42,1.46-1.76,1.16-1.14.26a.56.56,0,0,1-.38-.32l-.35-.33a1.46,1.46,0,0,0-.45-.18,1.15,1.15,0,0,1-.39-.32l-.14,0v.09l.13.3a4,4,0,0,0,.39.29l.49.18,0,.22,0,.08-.35,0-.52-.09a2.35,2.35,0,0,1-.3.33l-.5-.19-1.14,0a2.08,2.08,0,0,1-.58-.06l-.56,0a3.63,3.63,0,0,0-.55-.1l-1.46-.5a1,1,0,0,1-.29-.47c0-.23.07-.46.11-.68l-.07-.22-.32,0c0,.21,0,.43,0,.64,0,0,0,.06-.08.09l-.45-.25-.14-.13a2.2,2.2,0,0,1,.07-.41l-.42-.15a2.54,2.54,0,0,1,.07-.47.15.15,0,0,0-.07-.12l-.49,0-.07-.14c0-.21-.08-.44-.11-.68l0-.45a.19.19,0,0,0-.14.1l-.17,0,0,0c0-.14,0-.27,0-.41a1.06,1.06,0,0,1,.38-.38.69.69,0,0,0,.35-.33,2.31,2.31,0,0,0-.52-.12,2.9,2.9,0,0,1-.22-.59,4.77,4.77,0,0,1,.11-.68,2.9,2.9,0,0,1,.24.5,1.49,1.49,0,0,0,.17.36v-1l0-.68,0-.09c-.07-.18-.14-.37-.22-.55a2.8,2.8,0,0,0,.28-.46l.21-.6a3,3,0,0,0,.09-.45l0-.18-.11-.22-.31,0-.24.51a.72.72,0,0,1-.24-.53v-.28l-1,.07-.3.1v-.37c0-.21.07-.45.1-.74l.09-.68c-.07-.18-.14-.36-.2-.54s0-.55-.05-.83l0-.31.31.08a.71.71,0,0,1,.21.51l-.21.13c0,.12,0,.24,0,.36a6.07,6.07,0,0,1,.17.59c0,.14-.08.28-.13.42l.07.18.28.45.14.08.31-.09a2.65,2.65,0,0,0-.25-.54l.06-.73-.24-.54.38-.1.45.14,0-.28,0-.82c0-.23.09-.45.13-.68l.21-.55a2.07,2.07,0,0,1,.38-.32l0-.32,0-.14v-.31a1,1,0,0,1-.31-.32,4.69,4.69,0,0,0,.1-.67c0-.26,0-.53,0-.79h0a.49.49,0,0,0-.27.46l0,.82a4.66,4.66,0,0,0-.24.5c0,.78-.09,1.55-.13,2.32,0,.21-.09.42-.13.63a.48.48,0,0,1-.32-.34c0-.22.07-.43.11-.65a4.14,4.14,0,0,1-.11-.63c0-.23.06-.46.1-.7a3.37,3.37,0,0,0-.07-.62l-.11-.18-.24.18a4.63,4.63,0,0,0-.3.4l-.07.33.25.09c0,.21-.07.42-.11.63s.05.4.07.59l-.1.06c-.17,0-.29-.13-.38-.37s.06-.45.1-.68l-.14-.64c0-.55,0-1.09-.05-1.64l0-.78c0-.23,0-.46,0-.69l0-.13.35-.37a.86.86,0,0,1-.38-.36,3.17,3.17,0,0,1-.07-.73V1054l.06-.14a.76.76,0,0,0,.2-.45l-.2-.58,0-.79v-.68l0-.09c0-.77.09-1.55.13-2.32a5.73,5.73,0,0,1,.1-.73l.36-2c.13-.39.25-.78.38-1.17s.49-1,.74-1.47l1-1.14.37-.31.34-.38,2.45-.76A3.85,3.85,0,0,0,530.81,1040.83Zm-6.21,25h.2l0,.42-.17,0Zm.28,1.55a1.73,1.73,0,0,1,.45.31,3.85,3.85,0,0,1,.17.67c0,.58,0,1.16,0,1.73a.76.76,0,0,1-.27-.44l-.21-.63Zm.16-16.1c0,.17,0,.34.07.5l.23-.08,0-.37Zm.05-2.36,0,.22h.11C525.13,1049.11,525.11,1049,525.09,1049Zm0,1.45,0,.14,0-.14Zm.12,2.78a.8.8,0,0,0-.1.23,1.18,1.18,0,0,0,.27.1l.07-.33Zm.68-7.21a6.22,6.22,0,0,1-.17.81,2.64,2.64,0,0,1-.23.62,1.15,1.15,0,0,0-.27.54.53.53,0,0,0,.28.51,6.2,6.2,0,0,0,.19-.67l.21-.73a3.77,3.77,0,0,1,.27-.58c0-.17,0-.33,0-.49Zm2.74,15.19a2.49,2.49,0,0,0-.41.28,2.1,2.1,0,0,1-.31.37l-.45.18-1.19.8-.41.18a1.83,1.83,0,0,0,.07.45l1.85-.88.71-.6a2,2,0,0,0,.28-.42l.06-.27,0-.09Zm-2.38-12,0,.28.11.09.25,0,0-.32Zm1.19,2.84-.79.35a1.28,1.28,0,0,0-.24.31l0,.42a.18.18,0,0,0,.1.09l.31-.23.27-.32.44-.34v-.23Zm-1,18.51a.38.38,0,0,0,.11.22A.36.36,0,0,0,526.45,1070.51Zm.08-9.44v.23h.38v-.23Zm.14-16.89a.79.79,0,0,0-.1.27h.13l.07-.23Zm.62,22.08-.45.37c0,.17-.08.34-.13.51l.11,0a2.73,2.73,0,0,0,.47-.29c0-.17.05-.34.07-.51A.21.21,0,0,0,527.29,1066.26Zm.5,1.3v.45l-.35.06a1.36,1.36,0,0,1-.38-.35l-.28,0c0,.15,0,.3,0,.45s-.05.4-.07.6a.13.13,0,0,0,.08.08,3,3,0,0,0,.41-.19l.3-.06a.77.77,0,0,0,.18.18l.17-.68c0-.17,0-.34.07-.51Zm-1-12.3,0,.26a.2.2,0,0,0,.07.1l0,0,0-.28Zm0-.68,0,.22a.35.35,0,0,0,.21-.22Zm.2-6.26a.92.92,0,0,0-.17.4.68.68,0,0,0,.28.23,1.05,1.05,0,0,0,.13-.39A.26.26,0,0,0,527,1048.32Zm.83,15.53-.45.32a.87.87,0,0,0-.23.56c.06.19.13.39.2.59l.15.67a.36.36,0,0,0,.2.08l0-.36c0-.29,0-.57,0-.86a3.06,3.06,0,0,1,.17-.55l.1-.45Zm-.2,5.43a.61.61,0,0,0-.28.29.75.75,0,0,0-.17.37.91.91,0,0,0,.28.22.54.54,0,0,1,.27.25c0,.2,0,.39,0,.59a1.64,1.64,0,0,1-.41.1l-.07.51v.59l.38.07.42-.11,0-.36,0-.14,0-1.16-.18-1A.71.71,0,0,0,527.63,1069.28Zm-.54-23.31,0,.64,0,.22h.17l0-.1.06-.57A.75.75,0,0,0,527.09,1046Zm4.9,1.57a.76.76,0,0,0-.27.35.91.91,0,0,1-.3.25l-2.57-.09-1.72-.45v.17l.25.38.07.19,3.66.33,0,.36c-.08.35-.16.71-.23,1.06,0,.91,0,1.82-.05,2.72l-.12,1.26-.44.13a.75.75,0,0,0-.25.36,2.2,2.2,0,0,0,.21.44.77.77,0,0,0,.39.23,1.06,1.06,0,0,1,.13.53c0,1.42,0,2.84,0,4.26a3.52,3.52,0,0,1-.06.63c-.05.17-.1.33-.14.49a1.78,1.78,0,0,1,.14.54c0,.24,0,.48,0,.71a2.46,2.46,0,0,1-.17.5l-.68.51c-.14,0-.23.16-.27.37l0,.22.27,0,.34-.28.45-.14a2.32,2.32,0,0,1,.18.39l.12,2a2.23,2.23,0,0,0,.15.53c.12.31.25.62.38.93s.1.32.14.48a.83.83,0,0,1,.28.25c-.06.15-.13.3-.2.46a1.22,1.22,0,0,0,.31.29l.35,0,.1,0,.38-.24.48-.11a1.29,1.29,0,0,0,.41-.16c.1-.11.19-.23.28-.35l.45-.16c1.32.07,2.64.12,4,.17h.13a1,1,0,0,0-.14-.29,1.44,1.44,0,0,0-.28-.34l-3.62-.08c.09-.57.19-1.15.29-1.72,0-1.09.07-2.17.1-3.26a.45.45,0,0,1,.24-.41,2.05,2.05,0,0,0,.41-.18,2.65,2.65,0,0,0-.07-.48,2.84,2.84,0,0,0-.25-.39H535l0-.27-.09-4.79c0-.17.09-.35.14-.52l0-.36,0-.13-.09-1.23.08-.13c.11-.09.22-.18.34-.26l.37-.17a1.41,1.41,0,0,0,.3-.3,3.31,3.31,0,0,0,0-.34l-.17,0-.78.33h-.24v-.44c-.06-.62-.12-1.23-.19-1.85a3,3,0,0,0-.11-.57c-.06-.14-.13-.28-.2-.41-.11-.35-.21-.69-.32-1l-.28-.27.17-.43a1.07,1.07,0,0,0-.37-.24Zm-4.14,10.07a1.41,1.41,0,0,0-.17.41l-.1.31v-.17l-.38,0c0,.48,0,1,0,1.45l.17-.05a1,1,0,0,1,.31-.23l.69.09.1,0a1.09,1.09,0,0,0,.07-.42,2,2,0,0,0-.24-.26l-.36-.13a.89.89,0,0,1-.2-.19l.24-.26a.88.88,0,0,0,.1-.37A.49.49,0,0,0,527.85,1057.61Zm-.54-14.62c0,.21-.09.42-.13.63v.63l0,.14c0,.33,0,.66,0,1a.32.32,0,0,0,.23-.17l-.13-.19.17-.26,0-.5-.06-.14,0-.17.06-.45A1.89,1.89,0,0,0,527.31,1043Zm.4,28.51.1.17-.21.11A1.24,1.24,0,0,1,527.71,1071.5Zm0-11.26a.24.24,0,0,0,.17.17A.35.35,0,0,0,527.7,1060.24ZM528,1057a.67.67,0,0,0-.17.36h.45A.44.44,0,0,0,528,1057Zm-.1-4.25a.36.36,0,0,0,.24.18A.76.76,0,0,0,527.92,1052.73Zm.27,14.28a3.69,3.69,0,0,0-.06.54.62.62,0,0,0,.31.08l.06-.32,0-.14A.56.56,0,0,0,528.19,1067Zm-.05-13.87-.08.41.08.17.2-.08.1-.36Zm-.06-2.57v.49l.21,0v-.41Zm.39,22.21a.62.62,0,0,0,.28.25A.31.31,0,0,0,528.47,1072.78Zm.06-1.59a.32.32,0,0,0,.25.17A.62.62,0,0,0,528.53,1071.19Zm.13-11.06-.13,0,0,.28.11.08.13-.27A.21.21,0,0,0,528.66,1060.13Zm-.07,9.25a.5.5,0,0,0,.21.44l0-.44Zm.86-4a2.16,2.16,0,0,1-.19.45l-.49.1-.06.42,0,.12v.19l.24,0,.41-.28a1.87,1.87,0,0,0,.41-.15,4.79,4.79,0,0,0-.08-.62A.88.88,0,0,0,529.45,1065.35Zm-.73-6.93.25.41.23-.09,0-.24,0-.09Zm.06-.68,0,.14.06,0,0-.28h-.1Zm2.93,13.33c-.15.08-.3.18-.48.3l-.44.29-1.55,1.48a1.36,1.36,0,0,0-.21.28.56.56,0,0,0,.07.23.67.67,0,0,1,.42.28l.28,0v-.41l-.1-.17.79-.46.31-.46.79-.72.34-.41.11-.28Zm-2-.61-.62.39a1.24,1.24,0,0,0,.11.36,3.41,3.41,0,0,0,.38-.38l.24-.19A.29.29,0,0,0,529.7,1070.46Zm-.19-11.41-.17.14c0,.19,0,.4.07.62l.15,0c0-.24,0-.48,0-.71Zm1.13,7.24-.38.29-.31.37-.44.19.24.21.21.08.1,0,.11-.09a1.41,1.41,0,0,0,.26-.37,1.6,1.6,0,0,0,.42-.2v-.45Zm-1.14-9.17a.19.19,0,0,0,.14.12Zm.68,3a3,3,0,0,0-.45.31l-.17.14a.51.51,0,0,0,.14.26,1.94,1.94,0,0,0,.48-.27,1.48,1.48,0,0,0,.13-.45Zm-.55,1.07,0,.33a.16.16,0,0,0,.1.08c0-.07,0-.15,0-.22l0-.09A.17.17,0,0,0,529.63,1061.15Zm.44,6.69-.28.51-.1.31.24-.06h.38v-.76Zm-.24-25.9a1.12,1.12,0,0,0-.17.4l.21.05.17-.08,0-.36Zm0,22.27a.62.62,0,0,0,.1.22A.35.35,0,0,0,529.83,1064.21Zm.18,1.39c0,.2,0,.41.07.62l.14-.14a1.64,1.64,0,0,0,.07-.36l0-.13Zm.48-.56a.18.18,0,0,0,.14.13A.25.25,0,0,0,530.49,1065Zm.4,2.49-.14.1,0,.4.13.09.48-.16,0-.36A3.4,3.4,0,0,0,530.89,1067.53Zm.67,6.14a1.15,1.15,0,0,0-.34.3v.22l.21,0,.07,0a1,1,0,0,0,.31-.29A.51.51,0,0,0,531.56,1073.67Zm-.4-26.74c0,.16,0,.33,0,.49h.31v0l0-.4Zm.71,22.22a2.17,2.17,0,0,0-.17.49l.11.13.44-.16,0-.3A.89.89,0,0,0,531.87,1069.15Zm-.09,1.2,0,.14,0-.14Zm.63-2.21.32,0-.08.23-.06.1-.17-.09Zm.22,1.19,0,.26h.1l0-.22Zm-.06-26.29-.17,0a1.28,1.28,0,0,0,.13.45h.14v-.41A.18.18,0,0,0,532.57,1043Zm-.06,1.24,0,.44,0,.17,0,.1h.1l0-.63v-.08Zm0-3,.07.18,0-.17Zm.11,4.44a.91.91,0,0,0,.2.36A.92.92,0,0,0,532.59,1045.7Zm.22,24.34a1.32,1.32,0,0,0,.25.38A1.19,1.19,0,0,0,532.81,1070Zm.21,1-.06.71h.15c0-.12,0-.23,0-.35A1,1,0,0,0,533,1071.09Zm0,1.46c0,.17,0,.33,0,.5l.23-.07v-.44Zm.09,2a.49.49,0,0,0,.1.3Zm-.16-28c0,.09,0,.18,0,.27l.17-.08Zm.08,1.21.24,0a.38.38,0,0,1-.06.22h-.25Zm.4-1a2.82,2.82,0,0,1,.07.31.17.17,0,0,0,.07.1l0,0,.23,0a1.7,1.7,0,0,0,.1-.47l-.44,0Zm2.45-4.08a1.66,1.66,0,0,0,.07.49l-.07.12a2.18,2.18,0,0,0-.44.24,2.82,2.82,0,0,0-.4.27l-1.15,1-.2.21,0,.32a3.26,3.26,0,0,0,.48-.11,2.26,2.26,0,0,0,.41-.3,1.94,1.94,0,0,0,.4-.28l1.19-.88.33-.38a2.46,2.46,0,0,0,.07-.29Zm-2.05,3.13,0,.13.1,0A.09.09,0,0,0,533.78,1045.72Zm.14-3.61a2.09,2.09,0,0,0-.13.48l.17,0,.07,0h.06l.1,0a1,1,0,0,0,.21-.38Zm.23,26.43v.49h.31v0l0-.39Zm.31-20.37-.25.07v.32h0a.61.61,0,0,0,.35.15c.14,0,.21-.13.23-.31A.46.46,0,0,0,534.46,1048.17Zm1.13.8-.75.44a2.63,2.63,0,0,0-.06.49.18.18,0,0,0,.1.09l.85-.71a1.1,1.1,0,0,0,.34-.26Zm-.59,2v.22a.74.74,0,0,0,.17-.21Zm.86,4.41a1.54,1.54,0,0,0-.51.26l0,.44.13,0,.48-.3a1.11,1.11,0,0,0,.13-.35Zm-.08-7.71a.79.79,0,0,0-.51.2,2.79,2.79,0,0,0,.11.62,2.72,2.72,0,0,0,.38-.38l.16-.43Zm-.32,2.39a1.34,1.34,0,0,0-.16.44.48.48,0,0,0,.17.18l.14,0v-.47Zm.25,23.28-.06.14c0,.1,0,.2.07.3l.21,0,.1-.36Zm-.09-28.56.1.14A.22.22,0,0,0,535.62,1044.81Zm.07,7a.25.25,0,0,0,.11.17A.69.69,0,0,0,535.69,1051.86Zm.8-2.12a.62.62,0,0,1-.27.26l-.44,0a1.81,1.81,0,0,0,.07.52,1.17,1.17,0,0,0,.28.36l.19-.38.48-.07.06-.56A1.31,1.31,0,0,0,536.49,1049.74Zm-.6,4.88a.81.81,0,0,0,.14.35A.52.52,0,0,0,535.89,1054.62Zm.34-9.29a.52.52,0,0,1-.33.32l-.06.31.57-.32.06-.3Zm-.19,13.45v.17l.14-.09Zm0-2.45,0,.57.11.17.06-.09c0-.16,0-.32.07-.48Zm.42,1,0,.13,0,.35.38,0A.82.82,0,0,0,536.5,1057.29Zm.29.87-.07.26.14-.05A.58.58,0,0,0,536.79,1058.16Zm2.61-5.17-.48.16-1.12.71-.34.3-.4.21a.58.58,0,0,0-.21.48l0,.22.27-.09,2.25-1.44a1.07,1.07,0,0,0,.33-.28,2.51,2.51,0,0,0,0-.27Zm-2.6-6.29,0,.44.14,0v-.4Zm.13,9,0,.34.14,0,0-.3Zm-.12-10.54v.26l.21,0A.5.5,0,0,0,536.81,1045.14Zm0-1.56c0,.16.1.25.24.27A.33.33,0,0,0,536.83,1043.58Zm1.32,13a2,2,0,0,0-.14.35l-.21-.13a1.93,1.93,0,0,0-.62-.09l-.17.09a2.72,2.72,0,0,0,.08.47l.45.26a.9.9,0,0,1,.52.3.93.93,0,0,0,.34.13l0-.17a1.22,1.22,0,0,1-.1-.34c0-.29,0-.58,0-.87Zm-1-7.73,0,.38,0,.13a.26.26,0,0,0,.07.14l.17-.09a2.17,2.17,0,0,0,.1-.47Zm.25,13.38a2,2,0,0,0-.13.47l.21.13c0-.18.06-.35.1-.52Zm-.07-3.48v.26l.31.13.14-.1,0-.21,0,0Zm.07,6.08v.43l.21,0v-.4Zm.12-1.87a.25.25,0,0,0,.24.21A.79.79,0,0,0,537.5,1062.93Zm.38-5.25-.34.34a.2.2,0,0,0-.07.13l.11.35a.58.58,0,0,0,.34-.3l.06-.4A.15.15,0,0,0,537.88,1057.68Zm-.28,3v.26l.06-.23Zm-.12-16.14.06,1.69c0,.16.05.32.07.48l.15.41a.75.75,0,0,0,.27.23.6.6,0,0,0,.34-.55l-.21-.31-.28-.28c0-.16,0-.32-.07-.48a.76.76,0,0,1,.33-.11h.14c0-.32,0-.63,0-.95l-.35-.11Zm.45,5.91-.06.34c0,.11,0,.23.07.35a4.47,4.47,0,0,1-.17.65c0,.2-.1.4-.16.6s0,.12.11.14l.27-.09a2.58,2.58,0,0,0,.37-.37,3.32,3.32,0,0,0,.13-.35.31.31,0,0,0-.07-.21,1.91,1.91,0,0,1-.21-.61A.5.5,0,0,0,537.93,1050.4Zm.69-2.64a.92.92,0,0,1-.48.14l-.31-.1-.06.22c0,.23-.07.46-.1.69l.07-.18.27,0,.28.14a2.31,2.31,0,0,0,.47.24l0-.44c0-.2.06-.4.08-.6Zm-.86,8a.28.28,0,0,0,.17.22A.76.76,0,0,0,537.76,1055.72Zm.07-10.82a.31.31,0,0,1,.14.14l-.17.16,0-.26h.07Zm.44,25.24c0,.14,0,.28,0,.43l-.07.12a3,3,0,0,0-.1.45c0,.23.08.45.11.68l-.1.1a1.25,1.25,0,0,0,.15.46,1.11,1.11,0,0,0,.21-.32c0-.24,0-.49,0-.73l0-.74A.58.58,0,0,0,538.27,1070.14Zm1-7.48a2.5,2.5,0,0,0-.34.27l-.75.63c0,.08.07.17.11.25l.71-.42a.62.62,0,0,0,.24-.34,2.77,2.77,0,0,0,.1-.26A.19.19,0,0,0,539.28,1062.66Zm-1,6.08,0,.65,0,.18.11.08.17-.06.06-.57A.75.75,0,0,0,538.32,1068.74Zm.22-2a1.19,1.19,0,0,0-.13.44.46.46,0,0,0,.34.1,1,1,0,0,0,.1-.39A1.48,1.48,0,0,0,538.54,1066.7Zm0-17.31a4.8,4.8,0,0,0-.23.55l0,.25a1.5,1.5,0,0,0,.3-.1,2.49,2.49,0,0,0,.3-.43l0-.25Zm.32,11.64-.17.27.11.12.14-.26A.35.35,0,0,0,538.81,1061Zm0-.64-.06.17,0,.08.1,0,0-.27Zm-.1-5.44v.22h.38V1055Zm.23,16a.46.46,0,0,0,.22.24C539.14,1071,539.07,1071,538.93,1071Zm.15-4.75,0,.29.35,0v-.26Zm-.08-20.15v.18l.11-.12Zm1.27,21-.31.57-.23.61-.12.74,0,.52.24-.06c0-.22.09-.45.16-.7l.21-.66.33-.48A.76.76,0,0,0,540.27,1067Zm-.24-20.37a1.16,1.16,0,0,1,.28.54l.33,1.3,0,.63-.06.08a.67.67,0,0,1-.41-.26l-.15-.66c0-.27,0-.54,0-.81S540,1047,540,1046.67Zm.2,15.66,0,.3a.64.64,0,0,0,.23-.1A.63.63,0,0,0,540.23,1062.33Zm.1,1.57,0,.43h.3l0-.43Zm.23,2.43-.06.22h.13A.31.31,0,0,0,540.56,1066.33Zm.21-15.94h.2l0,.32-.17,0Z" class="cls-8" transform="translate(-52.38 -161.9)"/><path d="M544.59,1042.75l.82.08v.27l-.19.18c0,.45.11.9.16,1.35l.16.28a1.65,1.65,0,0,0,.33-.23v-.51c-.08-.4-.17-.79-.26-1.19a3.1,3.1,0,0,1,.92,0l1.6.18.06,1.14.15.1c.24,0,.48,0,.73,0l.09.13a.56.56,0,0,0,.5.47l.1.34a1.63,1.63,0,0,0-.43.08l-.33.6a1,1,0,0,1-.57.41.19.19,0,0,0-.15.11l.21.48c0,.17-.14.3-.38.38a1.48,1.48,0,0,0,.54.51,1.74,1.74,0,0,0,.68.34.65.65,0,0,1,.5.58c0,.27.1.54.16.81a2,2,0,0,1-.28.64,1.61,1.61,0,0,1-.54-.53c0-.08-.07-.17-.11-.26a.65.65,0,0,0-.33.19c.36.33.72.66,1.09,1l.43.07c0,.17,0,.33,0,.5a7.13,7.13,0,0,1-.92-.14,3.89,3.89,0,0,1,.34.52,2.87,2.87,0,0,1,.51.53c.07.55.14,1.1.22,1.66a3.42,3.42,0,0,1-.64-.31.59.59,0,0,0-.33.53,3.56,3.56,0,0,0,.59.4,1.07,1.07,0,0,1,.35.66c0,.31,0,.61,0,.92a5,5,0,0,0-.58.2.66.66,0,0,1,.25.34h-.48a1.18,1.18,0,0,0-.28.62c0,.13,0,.26,0,.38l.05.13.25.13a1.18,1.18,0,0,1-.44.54,1.42,1.42,0,0,1,.26.71c.08.42.15.84.22,1.25l-.49,0c-.09-.23-.17-.47-.26-.71l-.25-.11c0,.16,0,.33.07.5s.2.44.31.66l.34,0c-.05.35-.09.7-.14,1.06l.35,0,.43-.56a1.42,1.42,0,0,0,.18-.67,1.32,1.32,0,0,1,.23-.63l.06.37c0,.42,0,.83,0,1.25l0,.16-.34.14.1.37.39.07c0,1.37.09,2.74.14,4.1a3.2,3.2,0,0,0,.73.11l1-.13.29,0c0,.19-.13.31-.38.36l-.84.07-1,.29a2.76,2.76,0,0,0-.38.61.88.88,0,0,1,.25.52c0,.38-.11.76-.17,1.15l.44.07c0,.1,0,.2,0,.31a2.92,2.92,0,0,1-.59,0l-.51-1.37-.06-.38-.44.13-.25.15a.69.69,0,0,0,.26.31l.29.09c0,.13,0,.26,0,.39l-.54,0v.42a.18.18,0,0,0,.11.12l.43-.09v.25l-.2,0-.3.08,0-.25a.65.65,0,0,0-.29.16,1.14,1.14,0,0,0-.33.62v.26a1.14,1.14,0,0,1-.3-.35l-.1-.29a2.21,2.21,0,0,0,.44-.26.75.75,0,0,0,.19-.23c-.06-.32-.11-.64-.16-1l0-.34a4.21,4.21,0,0,1,.52-.51.72.72,0,0,0,.39-.5.41.41,0,0,0-.25-.15l-.43.21a3.54,3.54,0,0,0-.44.55,3.14,3.14,0,0,0-.17.77c0,.3,0,.6-.05.89l-.34,0c0-.22,0-.43,0-.64s0-.14,0-.22l-.58.23c-.23.13-.46.26-.68.4a6.48,6.48,0,0,1-.79.33l-.44.26v-.39a1.66,1.66,0,0,0,.58-.44l.09-.66a4.74,4.74,0,0,0,.88-.2l0-.22a5.59,5.59,0,0,0-.63.19,1.32,1.32,0,0,0-.6-.31l-.33.41-.06-.2q-.18-10.44-.38-20.88a3.44,3.44,0,0,0,.18-.72l-.24-3.44Zm12.83,26a1.21,1.21,0,0,1,.46.44,1.11,1.11,0,0,0,.4.45l.14-.1,0-.42-.05-.12c0-.09,0-.18,0-.26l.64,0a3,3,0,0,0,.22.63l0,.26a2,2,0,0,0,.24-.33,1.49,1.49,0,0,1,.38-.18l.26.2.12-.62a.57.57,0,0,1,.19-.33c0,1,.06,2,.08,3q-7.67,1.29-15.4,2.18a.25.25,0,0,1-.15-.06c0-.62,0-1.24,0-1.86l0-.54.26.15a4.64,4.64,0,0,1,.3.67l.06.68.19,0a1.37,1.37,0,0,0,.34-.64l0-.6.25.05.94,0a3.48,3.48,0,0,1,.8.17.22.22,0,0,0,.09-.1l0,0c0-.13,0-.25,0-.38a.27.27,0,0,1,.14-.1.38.38,0,0,1,.45.42,1.76,1.76,0,0,1,.59.31l.36.58a.77.77,0,0,0,.6.3,2.1,2.1,0,0,0,.33-.63,4.58,4.58,0,0,0,.18-.73v-.4l.23,0v.33l.64-.08.1-.22a1,1,0,0,1-.36-.58c0-.21.2-.35.48-.43l.09-.21a1.77,1.77,0,0,1,.17.52l.73.08a.5.5,0,0,1,.4.27l-.24.07a1,1,0,0,0-.28.64c0,.09,0,.17,0,.25l.39,0a.17.17,0,0,0,.1-.09,3.87,3.87,0,0,0,.23-.68,3,3,0,0,1,.28-.57c0,.17.07.35.11.52l.3,0,.06.67.25.13.57-.92.43-.53a.38.38,0,0,1,.4.35.52.52,0,0,0,.35.34l0-.17a1.47,1.47,0,0,0,.68-.28,4.28,4.28,0,0,0,.07-.76A1.12,1.12,0,0,1,557.42,1068.79Zm-12.42-.58a2.34,2.34,0,0,1,.15.55A2.1,2.1,0,0,1,545,1068.21Zm.68-3.11,0,.22.2-.06A.23.23,0,0,0,545.68,1065.1Zm.52,1.31c-.11.13-.23.26-.34.4s-.06.24-.1.36l.16.07a2.69,2.69,0,0,0,.29-.41l.09-.35S546.26,1066.42,546.2,1066.41Zm-.69-21.25a2,2,0,0,0,.1.53l.14.09.1,0c0-.17,0-.34,0-.51A2,2,0,0,0,545.51,1045.16Zm.48,14.93c.09.37.18.74.26,1.11l.21.46.15.26.2-.1.08-.59-.06-1-.2-.07Zm0-2.53c0,.18,0,.37,0,.56l.2,0-.05-.6Zm0,1.29.06.6a.84.84,0,0,0,.35.29l-.06-.6A1,1,0,0,0,546,1058.85Zm1.06,10.86a1.88,1.88,0,0,1,.17.67l-.1.15-.4-.18h-.34v-.3l0-.09h0Zm-.5-6.85a.67.67,0,0,0,.44.54c0-.18,0-.37,0-.55Zm.14,2.69-.09.69a.53.53,0,0,0,.45.35L547,1066A.68.68,0,0,0,546.72,1065.55Zm.18,1.66c0,.19-.06.37-.1.56l.06.17.1,0,.29-.07a3.74,3.74,0,0,0,.09-.52A.8.8,0,0,0,546.9,1067.21Zm.15,3.4a.46.46,0,0,1,.21.37l-.15.06a.41.41,0,0,1-.2-.15A2.44,2.44,0,0,0,547.05,1070.61Zm-.17-6.95.11.3.29-.11A.39.39,0,0,0,546.88,1063.66Zm.49,8.25a.32.32,0,0,0,.15.2A.36.36,0,0,0,547.37,1071.91Zm-.32-23.76a.53.53,0,0,0,.11.21l0-.16Zm.24,2.18,0,.21.19,0A.44.44,0,0,0,547.29,1050.33Zm0,2.12a2.21,2.21,0,0,0,.16.61l.15.17a2.5,2.5,0,0,0,.43-.16l.15-.25-.49.07Zm.12,1.11-.09.6.3.08a2.07,2.07,0,0,1,.35.73l0-.17c0-.22-.07-.45-.11-.67A1.4,1.4,0,0,0,547.44,1053.56Zm.06,6.21,0,.84a.61.61,0,0,0,.39.42l0-.38c0-.29,0-.57,0-.86Zm-.13-15.33a1.47,1.47,0,0,0-.13.49l.49,0-.07-.43Zm.17,6.54a.8.8,0,0,0-.09.33l.49-.1A1.05,1.05,0,0,0,547.54,1051Zm.12-4.22a.66.66,0,0,0-.09.28A.66.66,0,0,0,547.66,1046.76Zm0,5.2a.4.4,0,0,0,.39.26A.51.51,0,0,0,547.66,1052Zm.31-6.66a1.58,1.58,0,0,0-.38.21l.24,0a1,1,0,0,0,.34-.22Zm.09,10.14a1.9,1.9,0,0,0-.13.51c0,.16.07.33.1.5s.13.29.2.43a1,1,0,0,0,.2.41c0-.31.05-.62.08-.93l0-.12a4.18,4.18,0,0,1-.25-.38Zm.34,10.84a.23.23,0,0,0,.25.24l.09-.26Zm.21-12.56a1.38,1.38,0,0,0-.38.32,1.17,1.17,0,0,0,.39.18H549l0-.2C548.94,1053.86,548.83,1053.75,548.61,1053.72Zm-.38-2.41a.55.55,0,0,0,.24.13A.47.47,0,0,0,548.23,1051.31Zm.11,6.2v.55l.29-.13a1.13,1.13,0,0,0,.09-.34Zm.07,1v.29l.19.12.11-.08,0-.26Zm.45,3.73a.86.86,0,0,1-.14.13l.21,1-.09.26.1,0a2.37,2.37,0,0,0,.13-.81c0-.21,0-.42,0-.63Zm-.16-13.82a2.18,2.18,0,0,0,.16.47.57.57,0,0,0,.3.18l0-.49Zm.44,15.53a2.37,2.37,0,0,0,.26.53l.3.07c0,.1-.07.2-.1.3l-.09.67a.9.9,0,0,0,.45.18l.24-.09c0-.4,0-.79,0-1.18a.88.88,0,0,0-.45-.35Zm-.17-16.64a.91.91,0,0,1,.25.27A.29.29,0,0,1,549,1047.28Zm.32,9a.24.24,0,0,0-.1.21A.34.34,0,0,0,549.29,1056.25Zm.22-1.38.06.38h.34A.53.53,0,0,0,549.51,1054.87Zm0-7.93.33,0,0,.29A.29.29,0,0,1,549.46,1046.94Zm0-1.08a.8.8,0,0,1,.15.43A1.46,1.46,0,0,1,549.48,1045.86Zm.32,16.69a.55.55,0,0,0,.25.28A.43.43,0,0,0,549.8,1062.55Zm-.23-14.68.34,0v.21l-.34,0Zm.08,4.46a.52.52,0,0,0,.25.26v-.25Zm.21,11.09.06.46.34-.07v-.36A3.46,3.46,0,0,0,549.86,1063.42Zm.41-4.55h.24v.67l-.14,0a1.24,1.24,0,0,1-.25-.33C550.17,1059.12,550.22,1059,550.27,1058.87Zm-.12-.66h.34c0,.18,0,.36,0,.54A2.22,2.22,0,0,1,550.15,1058.21Zm0-7.89h.24a1,1,0,0,1-.23.32C550.11,1050.54,550.11,1050.43,550.1,1050.32Zm.67,16.74.24,0v.29l-.24,0Zm0,.62a.55.55,0,0,1,.25.48l-.24,0Zm1.65-.8a1.62,1.62,0,0,1,.65.26l.64.23a.77.77,0,0,1,.44.35,4.11,4.11,0,0,0-.28.6,2.69,2.69,0,0,1-.38.57l-.73,0-.15.06-.15-.35a.72.72,0,0,0,.24-.19,3.67,3.67,0,0,0-.25-.55l-.21-.09,0,.41c.06.13.11.26.16.39l-.19.18a.6.6,0,0,0-.54.43.63.63,0,0,1-.43.3v-.25c0-.52.07-1,.11-1.54a.75.75,0,0,1,.39-.57Zm.5,2.68a.32.32,0,0,1,.15.18l-.44.1a.36.36,0,0,1-.15-.19l.44-.05Zm.44-.09.54-.06c0,.2,0,.4,0,.6A2.16,2.16,0,0,1,553.37,1069.47Zm.07-1.26a.64.64,0,0,0,.2.34A.63.63,0,0,0,553.44,1068.21Zm1.72-1.94a2,2,0,0,1,.64.1c0,.18,0,.37,0,.56a.27.27,0,0,0,.16.06l.38-.12a1,1,0,0,1,.49.11c0,.09,0,.18.05.26l-.28.12-.1.25a.37.37,0,0,1-.24-.14.85.85,0,0,0-.24.22l-.68.16a1.16,1.16,0,0,0-.44.32.62.62,0,0,1-.29.15c0-.22-.08-.45-.11-.67l0-.12a3.66,3.66,0,0,0,.59,0v-.4l-.24,0-.24.06a.52.52,0,0,1,.14-.3l.43,0a.12.12,0,0,0,.11-.08Zm-.15,2,.35,0-.1.21A.45.45,0,0,1,555,1068.32Zm1.23.1.2.37a2.41,2.41,0,0,1-.43.17l-.25,0a.52.52,0,0,1,.14-.3Zm1.45-2.66.54,0,0,.16a3,3,0,0,0-.1.47l.41.22c.08.32.17.63.26,1s0,.35,0,.53a4.94,4.94,0,0,1-.58.19l-.63.11a3.86,3.86,0,0,1-.58,0l-.11-.19h.4a1.76,1.76,0,0,0,.52-.22l-.2-.37.18-.44-.19-.29c0-.16.08-.32.13-.48Zm-.72.26a.5.5,0,0,1,.44.23A.45.45,0,0,1,557,1066Zm3.11-.45.34,0c0,.41,0,.82,0,1.23a.93.93,0,0,1-.24.33.74.74,0,0,0-.33.27l.39.14c0,.13.07.27.1.4l-.52.14a.65.65,0,0,1-.4-.1c-.09-.41-.18-.82-.28-1.23l-.15-.17a.86.86,0,0,1,.1-.16l.33-.26a2.32,2.32,0,0,1,.13-.4Z" class="cls-8" transform="translate(-52.38 -161.9)"/><path d="M563.32,1044.57l3.2.62a.41.41,0,0,1,.19.31c0,.13,0,.26.08.39a1.45,1.45,0,0,0,.12.37l.46.08.74-.06.1,0-.11-.15-.05-.42.23-.2.43,0c2.47.46,4.93.94,7.38,1.46l.43.12.12.31c0,.23.09.46.13.69,0,.75.08,1.51.11,2.27l-.06.65-.14.24a1.21,1.21,0,0,1-.35.07l-2.75-.32h-.32l0-.78.17,0c.08.08.15.16.23.23h.17l-.08-.17a.59.59,0,0,0-.19-.23.41.41,0,0,0-.3.08,2.1,2.1,0,0,0-.13.26l-.06.33a.22.22,0,0,1-.21.2l-1.83-.23-.4-.11-.89-.07a.44.44,0,0,0-.21.18l.15.78a1.58,1.58,0,0,1-.29.17l-.24.15-.09.33.18.08.07-.09.28-.05s.05,0,.07.08,0,.26,0,.39l-.09.36a1.53,1.53,0,0,1-.32,0,.62.62,0,0,0-.35.08l-.31.11a.39.39,0,0,0-.14.26l.77-.09a1.17,1.17,0,0,1,.3.19,1.82,1.82,0,0,1,.19.31c0,.26.09.51.13.77l0,.14.15-.1.35-.08,1.31,0,.82.17.68.25a.61.61,0,0,1,.19.26c0,.22-.07.45-.11.68a1.71,1.71,0,0,0,0,.25v.1h0a1.18,1.18,0,0,0,.3.09c0-.11,0-.23,0-.34s-.07-.42-.1-.62c0,0,0-.05.07-.07l.27-.17.31-.11.39,0a1.46,1.46,0,0,0,.28-.14l.43,0,.39.08a.76.76,0,0,0,.26.19,2,2,0,0,1,.36.13c0,1,.07,2,.1,3,0,.2.07.4.11.6l0,.08-2.31.06a.43.43,0,0,1-.29-.15l0-.36.16-.26c0-.31.09-.63.14-.94,0,0,0,0-.08,0a.47.47,0,0,0-.27.12c0,.34,0,.69,0,1l-.18,0a.9.9,0,0,0-.21.19l.06.38-.39.1-3.21.15a.9.9,0,0,0-.09.34l-.06,1.64-.23.22,0,.24.1,0a.28.28,0,0,1,.19.28l.15,3.92-.18.12.12.06.08.35,0,1.12.15,0c0,.73,0,1.47.08,2.2a.51.51,0,0,1-.32.2q-2.57.52-5.15,1l-.48,0-.45-14.71a.89.89,0,0,1,.07-.36,1.22,1.22,0,0,0,.28.14,1.07,1.07,0,0,0,.1-.36l-.43,0c0-.77-.07-1.55-.11-2.33l0-.47.24-.2c0-.11-.05-.18-.15-.19a.51.51,0,0,1-.15-.23l-.15-4.77a.41.41,0,0,1,.17-.27l.35-.07a.48.48,0,0,0,.32-.09l0-.25a.09.09,0,0,0-.06-.08l-.43,0-.17.27-.21.08C563.37,1046.27,563.35,1045.42,563.32,1044.57Zm.19.43c0,.16.09.33.15.5a1,1,0,0,0,.33.15l0-.28,0-.18A1.93,1.93,0,0,0,563.51,1045Zm4.65,20.8a1.7,1.7,0,0,0-.46.4.8.8,0,0,0,.52.27,1,1,0,0,1-.53.43,2.68,2.68,0,0,0-.05.42l.28-.1.33-.09a.38.38,0,0,1-.25.35,2.54,2.54,0,0,1-.54-.09l-.46.24a.65.65,0,0,1,.09-.19l.19-.1a.72.72,0,0,0-.23-.35c0-.13,0-.26.05-.39l-.18,0-.43,0,.08.3a.17.17,0,0,1,.08.07l0,.21a2.42,2.42,0,0,1-.43.13,1.74,1.74,0,0,1,.12-.61,3.5,3.5,0,0,0-.75.2l-1.21.71-.14.06.09.53-.06.38v.4h0a.36.36,0,0,0,.4.19l.43-.21a1.28,1.28,0,0,1,.11.2l1.56-.05.44.06-.08-.16a.69.69,0,0,1-.12-.29l.47-.12a1,1,0,0,0,.55.22l.5-.06c0,.12,0,.23,0,.34l.08.16a1.25,1.25,0,0,0,.13-.44,1.74,1.74,0,0,0,0-.22l.22-.21,0-.16a4.46,4.46,0,0,1-.14-.71,1.27,1.27,0,0,1,.29-.21l-.08-.09a.37.37,0,0,1-.45-.31l.09-.77C568.59,1065.88,568.44,1065.77,568.16,1065.8Zm-4.59-20.18c0,.17,0,.35,0,.52l0,.11v.1l.18.14.24-.11a.55.55,0,0,0,.14-.13c0-.11-.05-.23-.09-.37Zm.24,7.85a.5.5,0,0,0,.19.27A.61.61,0,0,0,563.81,1053.47Zm.8,4a3.81,3.81,0,0,0-.46.22l-.13.26.21,0a3,3,0,0,0,.46-.19l.13-.25Zm-.74-10-.06.36.08.22a3.43,3.43,0,0,0,.26.5l0-.36,0-.11c0-.19,0-.37,0-.55Zm.24,2.08v.3c0-.09.07-.17.1-.25Zm.43,9,0,.18,0,.07v.07l.08.11a.53.53,0,0,0,.32.17l0-.33-.12-.06A.81.81,0,0,0,564.54,1058.48Zm.24,6.44c0,.08,0,.15-.07.23l0,0,.1,0,.07-.22Zm-.18-5.51a2.36,2.36,0,0,0,0,.3l.24.74c.07.15.15.3.23.45l.1.11.33-.1.1-.14c-.06-.31-.12-.61-.17-.92a2.71,2.71,0,0,1,0-.29h-.33Zm.7,8.37.58-.08c0,.17.11.34.16.51l-.43.1-.63-.16A.63.63,0,0,1,565.3,1067.78Zm-.3-1.58v.18a.45.45,0,0,0,.21-.2Zm.44-2-.27.49a1.81,1.81,0,0,0,.29.33l.29-.06a3.06,3.06,0,0,0,0-.32A1.82,1.82,0,0,0,565.44,1064.21Zm-.26-2.34a1.27,1.27,0,0,0,.13.35l.24,0,.11,0c0-.13,0-.26,0-.39Zm.63,3.62a.69.69,0,0,0-.39.41l-.06.26h.36a1.52,1.52,0,0,0,.38-.38A.36.36,0,0,0,565.81,1065.49Zm-.23,3,.39-.06,0,.25A.32.32,0,0,1,565.58,1068.53Zm-.09-6,0,.21a2.24,2.24,0,0,0,.39-.1A.71.71,0,0,0,565.49,1062.49Zm.48,7v.14h.19l.07,0h.07A.4.4,0,0,0,566,1069.54Zm-.26-23.27a1,1,0,0,0-.11.23l.16.14h.49l.13-.05-.14-.23Zm.24,5a.55.55,0,0,0-.18.16A.31.31,0,0,0,566,1051.22Zm0,2.78c0,.11,0,.21,0,.32v.11h0l.4.11h.17l0,.28a.73.73,0,0,0,.19.28l0-.42-.09-.38-.33-.19Zm.22,5.22-.06.43.08.27a.47.47,0,0,0,.4.31l.07-.12,0-.48v-.08h0a1.59,1.59,0,0,0-.08-.35Zm.42,8.51.32,0,.05.17a1.19,1.19,0,0,1-.09.44.28.28,0,0,1-.27-.17l-.08-.28Zm-.46-16a.53.53,0,0,0-.1.28h.61a.68.68,0,0,0-.12-.22Zm.47,1.57a2.39,2.39,0,0,0-.45.09v.21l.28,0,.38-.11A.52.52,0,0,0,566.61,1053.33Zm1.2,11.85-.53.2-.35.33-.24.42,0,.25,1.06-.7a1.76,1.76,0,0,0,.43-.26v-.28Zm-1.69-17a.41.41,0,0,0,.19.2A.34.34,0,0,0,566.12,1048.19Zm.19,4.43.22.26.25-.06A2.22,2.22,0,0,0,566.31,1052.62Zm.34-5.61a1.41,1.41,0,0,0-.45.18l.14,0,.43,0A.36.36,0,0,0,566.65,1047Zm.15,8.53a.28.28,0,0,0-.2.3c.12.29.25.57.38.85a3,3,0,0,0,.15.38,1.08,1.08,0,0,0,.21-.34l-.16-.39a2,2,0,0,0-.19-.42A1,1,0,0,0,566.8,1055.54Zm1-7.81a.83.83,0,0,0-.31.16l-.39.06-.25,0v.18l0,0a1.43,1.43,0,0,0,.22.3.36.36,0,0,1,.07.18l-.14.05a.58.58,0,0,0-.31.14l-.06.23.18,0,.75.34a1.61,1.61,0,0,0,.36.1l.06-.26s0-.06-.07-.08l-.37-.18a.54.54,0,0,1,.11-.26.18.18,0,0,0,.2-.18c0-.16,0-.32,0-.47l0-.24A.26.26,0,0,0,567.84,1047.73Zm-.42,6.37a1.62,1.62,0,0,0-.45.16l-.06.23h.28a4.78,4.78,0,0,0,.53-.06v-.27Zm0,10.54a.58.58,0,0,0-.13.26l.18-.06a.64.64,0,0,0,.14-.22Zm-.1-1.24a.18.18,0,0,0,.11.16A.21.21,0,0,0,567.29,1063.4Zm-.18-6.08,0,.4.21-.13.1-.25Zm0,.76a.38.38,0,0,0,.33.3c0-.1,0-.2-.05-.3Zm.21.76c0,.22,0,.43,0,.65l.47.16a2,2,0,0,0-.16-.55A1.38,1.38,0,0,0,567.35,1058.84Zm.26,2.37-.08.12.09.3a.37.37,0,0,0,.19.2c0-.16.05-.31.08-.46A1,1,0,0,0,567.61,1061.21Zm.13.83c0,.12-.09.24-.13.35l.11.13a1.29,1.29,0,0,0,.1-.35A.24.24,0,0,0,567.74,1062Zm-.4-11.46v.18h.36A2,2,0,0,0,567.34,1050.58Zm.33-.72-.18,0a2.28,2.28,0,0,0,.22.23.45.45,0,0,0,.14-.23Zm.49,12.83a.36.36,0,0,0,.15.2A.36.36,0,0,0,568.16,1062.69Zm.05.38a1.14,1.14,0,0,0,0,.28l.33.14c0-.15,0-.3,0-.45Zm-.15-5.28a.61.61,0,0,0,.15.3,1.3,1.3,0,0,0,.33.07c0-.08,0-.16,0-.24Zm.22-.83-.06.32.25.09a.9.9,0,0,0,.33.31s.07-.11.11-.17l-.23-.23A.55.55,0,0,0,568.28,1057Zm0,1.65a1,1,0,0,0,.08.34h.25l0-.34Zm0,1.16a.27.27,0,0,0,.29.19A.27.27,0,0,0,568.31,1059.77Zm0-5.08.08.06.06-.09-.1,0Zm.27-6.58-.15.05.18,0v-.09Zm.15,6.28,0,.17.1-.16Zm.14,3.87c0,.12,0,.25,0,.37l.14-.07A.54.54,0,0,0,568.86,1058.26Zm.35-1.26a.35.35,0,0,0,.15.24A.35.35,0,0,0,569.21,1057Zm-.09-9.08.12.38.43.06a1.12,1.12,0,0,0-.3-.2A1.44,1.44,0,0,0,569.12,1047.92Zm.6,7.61-.06.44,0,.1.12,0c0-.16,0-.33,0-.49A.19.19,0,0,0,569.72,1055.53Zm0,.94c0,.11,0,.22.05.33l.11-.06A.48.48,0,0,0,569.68,1056.47Zm.14.73v.24l.18,0A.37.37,0,0,0,569.82,1057.2Zm.06-9.75-.11,0,0,.33,0,.11A1.86,1.86,0,0,0,569.88,1047.45Zm.29,11.41a.32.32,0,0,0,.18.1A.27.27,0,0,0,570.17,1058.86Zm.32-12.74.11.08,0-.13h-.07Zm.44,3.85-.11.16.18,0A.34.34,0,0,0,570.93,1050Zm-.06-2.36-.06.34.14,0A1,1,0,0,0,570.87,1047.61Zm1.7,7.27a3.12,3.12,0,0,0-.59.23.48.48,0,0,0-.23.42,5.47,5.47,0,0,0,.6-.21A.74.74,0,0,0,572.57,1054.88Zm-.78-5.4,0,.12h.08v-.13Zm.34.46a1,1,0,0,0-.28.14l-.07.1,0,.07H572a.63.63,0,0,0,.32-.12Q572.31,1050,572.13,1049.94Zm.21,8.7,0,.31.19,0,0-.22ZM571.9,1047a.61.61,0,0,0,.26.27A.34.34,0,0,0,571.9,1047Zm1.62,1.13-.92.53v.19l.24,0,.1,0,.32.11.29.14.07-.08c0-.14,0-.29,0-.43s0-.22,0-.34Zm-.93-.47,0,.13h.14l.06-.2-.18,0Zm.46,1.76a.46.46,0,0,0-.23.38l.39,0A2.5,2.5,0,0,0,573.05,1049.43Zm.45,7.2a1,1,0,0,0-.2.32,1,1,0,0,0,.16.34c0-.11.08-.23.13-.34l0-.25A.23.23,0,0,0,573.5,1056.63Zm-.12,1.32v.22h.18V1058Zm.73-1.28-.07.18h.36A.71.71,0,0,0,574.11,1056.67Zm.11-.55a.33.33,0,0,0,.19.12A.29.29,0,0,0,574.22,1056.12Zm.33-.7a.8.8,0,0,0-.21.2l.11,0a.5.5,0,0,0,.17-.15l0-.09Zm.76,2a1.87,1.87,0,0,1-.27.31c-.14,0-.21.12-.2.25a3.89,3.89,0,0,0,.42-.19A1.38,1.38,0,0,0,575.31,1057.4Zm.31-1.83-.16.3a1.6,1.6,0,0,0,.11.3l.06-.38a.24.24,0,0,0,.09-.15A.15.15,0,0,0,575.62,1055.57Zm-.36-8.59,0,.12.11-.12-.12-.06Zm0,.45c0,.28,0,.56.07.84l.14,0,0,0v-.76Zm.12,1.24,0,.21h.25l0-.18Zm.08,1.68a.44.44,0,0,0,.22.14A.55.55,0,0,0,575.48,1050.35Zm.62,7.85a.18.18,0,0,0-.07.15A.26.26,0,0,0,576.1,1058.2Z" class="cls-8" transform="translate(-52.38 -161.9)"/></g><rect id="neck" width="74" height="111.62" x="429.04" y="650.48" class="cls-9" rx="22.21" ry="22.21"/><rect id="upneck" width="74" height="129" x="429.04" y="554.1" class="cls-10"/><rect id="head" width="394.64" height="423.81" x="271.3" y="247.67" class="cls-11" rx="147.02" ry="147.02"/><rect id="head-2" width="394.64" height="423.81" x="268.72" y="233.67" class="cls-9" data-name="head" rx="147.02" ry="147.02"/><path id="ear" d="M275.28,527.8h0a69.64,69.64,0,0,1,69.64,69.64v23.35a69.64,69.64,0,0,1-69.64,69.64h0a22.62,22.62,0,0,1-22.62-22.62V550.42a22.62,22.62,0,0,1,22.62-22.62Z" class="cls-9" transform="translate(566.85 1045.24) rotate(177.95)"/><path id="inner_ear" d="M286.2,581H292a30.78,30.78,0,0,1,30.78,30.78v0a36.59,36.59,0,0,1-36.59,36.59h0a8.81,8.81,0,0,1-8.81-8.81V589.77A8.81,8.81,0,0,1,286.2,581Z" class="cls-12" data-name="inner ear" transform="translate(569.65 1056.26) rotate(177.95)"/><path id="deep_ear" d="M294.35,587h0a26.23,26.23,0,0,1,26.23,26.23v2.13a26.23,26.23,0,0,1-26.23,26.23h0a1.94,1.94,0,0,1-1.94-1.94V588.91a1.94,1.94,0,0,1,1.94-1.94Z" class="cls-10" data-name="deep ear" transform="translate(582.43 1055.26) rotate(177.95)"/><path id="ear-2" d="M726,696.33,711.8,695.2c-8.47-.67-14.65-10.3-13.73-21.39l9-108.31c.92-11.09,8.6-19.62,17.07-19l14.19,1.12c26.08,2.07,45.09,31.72,42.25,65.88l-2,24.42C775.72,672.13,752.06,698.39,726,696.33Z" class="cls-9" data-name="ear" transform="translate(-52.38 -161.9)"/><path id="inner_ear-2" d="M745.27,652.93l-10.6-.61c-2.57-.15-4.45-3.9-4.17-8.33l2.83-45.56c.27-4.43,2.61-7.94,5.18-7.79l7.51.44c10.69.61,18.5,16.2,17.36,34.62h0C762.41,641.2,754.26,653.45,745.27,652.93Z" class="cls-12" data-name="inner ear" transform="translate(-52.38 -161.9)"/><path id="deep_ear-2" d="M732,651.43h0c-.74,0-1.3-.91-1.23-1.92l3-46.31c.06-1,.73-1.81,1.48-1.77h0c10.1.58,17.64,12.3,16.74,26.05h0C751.12,641.23,742.11,652,732,651.43Z" class="cls-10" data-name="deep ear" transform="translate(-52.38 -161.9)"/><circle id="eyeR" cx="378.62" cy="395.1" r="71.32" class="cls-3"/><circle id="innereyeR" cx="378.62" cy="395.1" r="42.39" class="cls-10"/><circle id="pupilR" cx="378.62" cy="395.1" r="24.07" class="cls-7"/><circle id="glow" cx="387.41" cy="376.14" r="11.38" class="cls-13"/><circle id="eyeR-2" cx="554.62" cy="395.1" r="71.32" class="cls-3" data-name="eyeR"/><circle id="innereyeR-2" cx="554.62" cy="395.1" r="42.39" class="cls-10" data-name="innereyeR"/><circle id="pupilR-2" cx="554.62" cy="395.1" r="24.07" class="cls-7" data-name="pupilR"/><circle id="glow-2" cx="563.41" cy="376.14" r="11.38" class="cls-13" data-name="glow"/><path id="nose" d="M506.51,623.85l-21,39.37A14.81,14.81,0,0,0,498.55,685h42a14.81,14.81,0,0,0,13.06-21.78l-21-39.37A14.81,14.81,0,0,0,506.51,623.85Z" class="cls-14" transform="translate(-52.38 -161.9)"/><path id="nose-2" d="M506.11,624.79l-16.2,35.3a14.81,14.81,0,0,0,13.46,21h32.41a14.81,14.81,0,0,0,13.45-21L533,624.79A14.81,14.81,0,0,0,506.11,624.79Z" class="cls-11" data-name="nose" transform="translate(-52.38 -161.9)"/><g id="sourcilR"><path d="M375.38,491a1,1,0,0,1-.79-1.62c14.17-18.05,30.88-30.91,48.31-37.19,17.61-6.34,34.77-5.55,49.63,2.3,8.82,4.67,16.89,11.9,24,21.52a1,1,0,0,1-1.61,1.18c-6.93-9.36-14.78-16.41-23.32-20.93-29.39-15.54-66.85-2.05-95.43,34.36A1,1,0,0,1,375.38,491Z" class="cls-15" transform="translate(-52.38 -161.9)"/></g><g id="sourcilR-2" data-name="sourcilR"><path d="M672.75,502.74a1,1,0,0,1-1-.78,55.61,55.61,0,0,0-11.9-24.21c-19.74-22.84-59.28-28-100.73-13.06a1,1,0,0,1-1.28-.6,1,1,0,0,1,.6-1.28c42.24-15.19,82.63-9.84,102.92,13.64a57.62,57.62,0,0,1,12.34,25.07,1,1,0,0,1-.75,1.19A.91.91,0,0,1,672.75,502.74Z" class="cls-15" transform="translate(-52.38 -161.9)"/></g><g id="mouth"><path d="M509.09,746.21c-7.53,0-14.44-.38-20.61-1-32.48-3-54-12.11-58-14.38a1,1,0,0,1,1-1.74c3.91,2.22,25.05,11.13,57.17,14.13A223.36,223.36,0,0,0,604,723.09a1,1,0,1,1,.84,1.82A225.43,225.43,0,0,1,509.09,746.21Z" class="cls-16" transform="translate(-52.38 -161.9)"/></g><g id="mouth-2" data-name="mouth"><path d="M513.58,741.39c-42.49,0-78.32-7.93-83.06-10.51a1,1,0,0,1,1-1.76c8,4.35,105.38,24,172.51-6a1,1,0,1,1,.82,1.82C576.8,737.45,543.54,741.39,513.58,741.39Z" class="cls-17" transform="translate(-52.38 -161.9)"/></g><ellipse id="pimp" cx="338.14" cy="515.81" class="cls-18" rx="40.48" ry="33.17"/><ellipse id="pimp-2" cx="597.01" cy="519.17" class="cls-18" data-name="pimp" rx="40.48" ry="33.17"/><circle id="hair" cx="292.31" cy="247.86" r="59.69" class="cls-7"/><ellipse id="hair-2" cx="266.22" cy="303.43" class="cls-7" data-name="hair" rx="47.59" ry="55.57"/><ellipse id="hair-3" cx="268" cy="346.35" class="cls-7" data-name="hair" rx="29.66" ry="38.8"/><circle id="hair-4" cx="354.55" cy="197.86" r="59.69" class="cls-7" data-name="hair"/><circle id="hair-5" cx="327.71" cy="173.98" r="59.69" class="cls-7" data-name="hair"/><circle id="hair-6" cx="378.62" cy="168.41" r="59.69" class="cls-7" data-name="hair"/><circle id="hair-7" cx="431.35" cy="188.17" r="59.69" class="cls-7" data-name="hair"/><circle id="hair-8" cx="429.04" cy="144.17" r="59.69" class="cls-7" data-name="hair"/><circle id="hair-9" cx="506.44" cy="144.17" r="59.69" class="cls-7" data-name="hair"/><circle id="hair-10" cx="503.04" cy="197.86" r="59.69" class="cls-7" data-name="hair"/><circle id="hair-11" cx="587.01" cy="208.81" r="59.69" class="cls-7" data-name="hair"/><circle id="hair-12" cx="597.01" cy="183.81" r="59.69" class="cls-7" data-name="hair"/><circle id="hair-13" cx="678.09" cy="274.81" r="59.69" class="cls-7" data-name="hair"/><circle id="hair-14" cx="645.61" cy="228.1" r="59.69" class="cls-7" data-name="hair"/><circle id="hair-15" cx="686.34" cy="315.52" r="51.44" class="cls-7" data-name="hair"/><ellipse id="hair-16" cx="681.5" cy="352.71" class="cls-7" data-name="hair" rx="35.9" ry="49.91"/><circle id="hair-17" cx="527.53" cy="612.02" r="9.79" class="cls-7" data-name="hair"/><circle id="decor-8" cx="812.93" cy="845.61" r="19.63" class="cls-2" data-name="decor"/></svg>